<?xml version="1.0" encoding="UTF-8" standalone="no"?>
<!-- Created with Inkscape (http://www.inkscape.org/) -->

<svg
   xmlns:dc="http://purl.org/dc/elements/1.1/"
   xmlns:cc="http://creativecommons.org/ns#"
   xmlns:rdf="http://www.w3.org/1999/02/22-rdf-syntax-ns#"
   xmlns:svg="http://www.w3.org/2000/svg"
   xmlns="http://www.w3.org/2000/svg"
   xmlns:xlink="http://www.w3.org/1999/xlink"
   xmlns:sodipodi="http://sodipodi.sourceforge.net/DTD/sodipodi-0.dtd"
   xmlns:inkscape="http://www.inkscape.org/namespaces/inkscape"
   version="1.1"
   width="800"
   height="600"
   id="svg3095"
   inkscape:version="0.48.5 r10040"
   sodipodi:docname="clock_inkscape.svg">
  <sodipodi:namedview
     pagecolor="#ffffff"
     bordercolor="#666666"
     borderopacity="1"
     objecttolerance="10"
     gridtolerance="10"
     guidetolerance="10"
     inkscape:pageopacity="0"
     inkscape:pageshadow="2"
     inkscape:window-width="1680"
     inkscape:window-height="1011"
     id="namedview3178"
     showgrid="true"
     showguides="true"
     inkscape:guide-bbox="true"
     inkscape:zoom="0.90509668"
     inkscape:cx="292.73588"
     inkscape:cy="218.57944"
     inkscape:window-x="1680"
     inkscape:window-y="0"
     inkscape:window-maximized="1"
     inkscape:current-layer="svg3095"
     inkscape:snap-global="false">
    <inkscape:grid
       type="xygrid"
       id="grid4155"
       empspacing="1"
       visible="true"
       enabled="true"
       snapvisiblegridlinesonly="true"
       spacingx="20px"
       spacingy="20px" />
    <inkscape:grid
       type="xygrid"
       id="grid4418"
       empspacing="1"
       visible="true"
       enabled="true"
       snapvisiblegridlinesonly="true"
       spacingx="10px"
       spacingy="10px"
       color="#ff00ff"
       opacity="0.1254902"
       empcolor="#ff00ff"
       empopacity="0.25098039"
       dotted="true" />
  </sodipodi:namedview>
  <defs
     id="defs3097" />
  <metadata
     id="metadata3100">
    <rdf:RDF>
      <cc:Work
         rdf:about="">
        <dc:format>image/svg+xml</dc:format>
        <dc:type
           rdf:resource="http://purl.org/dc/dcmitype/StillImage" />
        <dc:title />
      </cc:Work>
    </rdf:RDF>
  </metadata>
  <path
     style="fill:none;stroke:#000000;stroke-width:6;stroke-linecap:round;stroke-linejoin:miter;stroke-miterlimit:4;stroke-opacity:1;stroke-dasharray:none"
     d="m 200,300 0,260"
     id="_vertical_separator_1"
     inkscape:connector-curvature="0" />
  <path
     style="fill:none;stroke:#000000;stroke-width:6;stroke-linecap:round;stroke-linejoin:miter;stroke-miterlimit:4;stroke-opacity:1;stroke-dasharray:none"
     d="m 400,300 0,260"
     id="_vertical_separator_2"
     inkscape:connector-curvature="0" />
  <path
     style="fill:none;stroke:#000000;stroke-width:6;stroke-linecap:round;stroke-linejoin:miter;stroke-miterlimit:4;stroke-opacity:1;stroke-dasharray:none"
     d="m 600,300 0,260"
     id="_vertical_separator_3"
     inkscape:connector-curvature="0" />
  <path
     style="fill:none;stroke:#000000;stroke-width:7.95681715;stroke-linecap:round;stroke-linejoin:miter;stroke-miterlimit:4;stroke-opacity:1;stroke-dasharray:none"
     d="m 40,240 720,0"
     id="_horizontal_separator"
     inkscape:connector-curvature="0" />
  <g
     transform="matrix(1.03985,0,0,1.03985,-10.45884,-462.69107)"
     id="_time">
    <text
       x="396.72733"
       y="652.36218"
       id="text3103"
       xml:space="preserve"
       style="font-size:400.60745239px;font-style:normal;font-weight:normal;line-height:125%;letter-spacing:0px;word-spacing:0px;fill:#000000;fill-opacity:1;stroke:none;font-family:Sans"
       sodipodi:linespacing="125%"><tspan
         x="396.72733"
         y="652.36218"
         id="tspan3105"
         style="font-style:normal;font-variant:normal;font-weight:bold;font-stretch:normal;text-align:center;text-anchor:middle;font-family:aharoni;-inkscape-font-specification:aharoni">88:88</tspan></text>
  </g>
  <text
     xml:space="preserve"
     style="font-size:67.53180695px;font-style:normal;font-weight:normal;line-height:125%;letter-spacing:0px;word-spacing:0px;fill:#000000;fill-opacity:1;stroke:none;font-family:Sans"
     x="100.04946"
     y="584.58252"
     id="_d0l"
     sodipodi:linespacing="125%"><tspan
       sodipodi:role="line"
       id="tspan4201-5"
       x="100.04946"
       y="584.58252"
       style="font-style:italic;font-weight:bold;text-align:center;text-anchor:middle;-inkscape-font-specification:Sans Bold Italic">D0L</tspan></text>
  <text
     xml:space="preserve"
     style="font-size:67.53180695px;font-style:normal;font-weight:normal;line-height:125%;letter-spacing:0px;word-spacing:0px;fill:#000000;fill-opacity:1;stroke:none;font-family:Sans"
     x="99.736198"
     y="484.58249"
     id="_d0h"
     sodipodi:linespacing="125%"><tspan
       sodipodi:role="line"
       id="tspan4201"
       x="99.736198"
       y="484.58249"
       style="font-style:italic;font-weight:bold;text-align:center;text-anchor:middle;-inkscape-font-specification:Sans Bold Italic">D0H</tspan></text>
  <text
     xml:space="preserve"
     style="font-size:67.53180695px;font-style:normal;font-weight:normal;line-height:125%;letter-spacing:0px;word-spacing:0px;fill:#000000;fill-opacity:1;stroke:none;font-family:Sans"
     x="300.04947"
     y="584.58252"
     id="_d1l"
     sodipodi:linespacing="125%"><tspan
       sodipodi:role="line"
       id="tspan4201-5-3"
       x="300.04947"
       y="584.58252"
       style="font-style:italic;font-weight:bold;text-align:center;text-anchor:middle;-inkscape-font-specification:Sans Bold Italic">D1L</tspan></text>
  <text
     xml:space="preserve"
     style="font-size:67.53180695px;font-style:normal;font-weight:normal;line-height:125%;letter-spacing:0px;word-spacing:0px;fill:#000000;fill-opacity:1;stroke:none;font-family:Sans"
     x="299.73621"
     y="484.58246"
     id="_d1h"
     sodipodi:linespacing="125%"><tspan
       sodipodi:role="line"
       id="tspan4201-9"
       x="299.73621"
       y="484.58246"
       style="font-style:italic;font-weight:bold;text-align:center;text-anchor:middle;-inkscape-font-specification:Sans Bold Italic">D1H</tspan></text>
  <text
     xml:space="preserve"
     style="font-size:67.53180695px;font-style:normal;font-weight:normal;line-height:125%;letter-spacing:0px;word-spacing:0px;fill:#000000;fill-opacity:1;stroke:none;font-family:Sans"
     x="500.04947"
     y="584.58252"
     id="_d2l"
     sodipodi:linespacing="125%"><tspan
       sodipodi:role="line"
       id="tspan4201-5-2"
       x="500.04947"
       y="584.58252"
       style="font-style:italic;font-weight:bold;text-align:center;text-anchor:middle;-inkscape-font-specification:Sans Bold Italic">D2L</tspan></text>
  <text
     xml:space="preserve"
     style="font-size:67.53180695px;font-style:normal;font-weight:normal;line-height:125%;letter-spacing:0px;word-spacing:0px;fill:#000000;fill-opacity:1;stroke:none;font-family:Sans"
     x="499.73621"
     y="484.58252"
     id="_d2h"
     sodipodi:linespacing="125%"><tspan
       sodipodi:role="line"
       id="tspan4201-6"
       x="499.73621"
       y="484.58252"
       style="font-style:italic;font-weight:bold;text-align:center;text-anchor:middle;-inkscape-font-specification:Sans Bold Italic">D2H</tspan></text>
  <path
     style="fill:#000000"
     d="m -114.21026,599.52244 c 0.2594,-0.10464 0.68385,-0.10464 0.94323,0 0.25938,0.10463 0.0472,0.1903 -0.47161,0.1903 -0.51877,0 -0.731,-0.0856 -0.47162,-0.1903 z m -9.63966,-0.95745 c -0.82695,-0.82695 -0.47199,-1.05704 1.52801,-0.99048 1.9409,0.0647 1.94786,0.0688 0.34583,0.21187 -1.23198,0.10999 -1.58359,0.2797 -1.42667,0.68865 0.25375,0.66124 0.14583,0.68296 -0.44717,0.09 z m 7.47026,0.0755 c 0,-0.20752 0.41444,-0.37729 0.92097,-0.37729 0.50652,0 1.02588,0.16977 1.15413,0.37729 0.13604,0.2201 -0.24761,0.37728 -0.92096,0.37728 -0.63477,0 -1.15414,-0.16978 -1.15414,-0.37728 z m 3.01831,-0.77685 c 0,-0.21976 0.16978,-0.29463 0.37729,-0.16637 0.2075,0.12825 0.37728,0.30804 0.37728,0.39955 0,0.0915 -0.16978,0.16638 -0.37728,0.16638 -0.20751,0 -0.37729,-0.1798 -0.37729,-0.39956 z m -3.96151,-1.1096 c -0.12825,-0.2075 -0.0534,-0.37728 0.16638,-0.37728 0.21975,0 0.39954,0.16978 0.39954,0.37728 0,0.20752 -0.0748,0.3773 -0.16636,0.3773 -0.0915,0 -0.27131,-0.16978 -0.39956,-0.3773 z m -4.10234,-0.57738 c -0.16569,-0.43176 -0.0497,-0.57383 0.39829,-0.48756 0.67006,0.12904 0.79885,0.77572 0.19461,0.97713 -0.19751,0.0659 -0.46431,-0.15447 -0.5929,-0.48957 z m -2.12289,-0.19945 c 0,-0.21976 0.16978,-0.29463 0.37728,-0.16638 0.20751,0.12825 0.37728,0.30805 0.37728,0.39956 0,0.0915 -0.16977,0.16637 -0.37728,0.16637 -0.2075,0 -0.37728,-0.17981 -0.37728,-0.39955 z m 4.59015,-0.37847 c -0.98786,-0.39594 -0.92264,-1.22794 0.11199,-1.42851 0.69088,-0.13391 1.31825,0.50712 1.32866,1.35764 0.007,0.54547 -0.22774,0.55701 -1.44065,0.0708 z m 3.14423,-2.99484 c -0.12826,-0.20751 0.0315,-0.37729 0.35502,-0.37729 0.32351,0 0.58819,0.16978 0.58819,0.37729 0,0.20751 -0.15976,0.37729 -0.35502,0.37729 -0.19526,0 -0.45995,-0.16978 -0.58819,-0.37729 z m -2.24108,-1.39753 c -0.10321,-0.2689 -0.49005,-0.49968 -0.85971,-0.51283 -0.51667,-0.0184 -0.47018,-0.10485 0.20105,-0.37408 0.48023,-0.19261 0.76017,-0.53298 0.62209,-0.75639 -0.13807,-0.22341 -0.4461,-0.33139 -0.68449,-0.23996 -0.24577,0.0942 -0.45766,-0.23195 -0.48938,-0.75335 -0.0683,-1.12374 -0.0671,-1.12232 -1.40886,-1.45911 -0.83917,-0.21061 -1.04661,-0.15328 -0.91288,0.25231 0.0952,0.28866 0.54176,0.57911 0.99241,0.64541 0.45063,0.0663 0.81933,0.29671 0.81933,0.51198 0,0.22369 -0.2829,0.27619 -0.66025,0.1225 -0.36313,-0.14792 -1.38181,-0.5216 -2.26372,-0.83041 -1.4495,-0.50757 -2.17583,-1.24513 -1.22618,-1.24513 0.67134,0 0.3992,-1.13042 -0.28297,-1.17538 -1.67873,-0.11065 -2.77815,-0.65028 -2.64768,-1.29956 0.0556,-0.27644 -0.4716,-0.92725 -1.17144,-1.44625 l -1.27242,-0.94363 1.27242,-0.52458 c 1.0555,-0.43514 1.29325,-0.43854 1.39443,-0.0199 0.22799,0.94317 3.078,0.41216 3.09642,-0.57692 0.01,-0.5521 0.0507,-0.54916 0.38727,0.0283 0.20668,0.35452 0.61333,0.55343 0.90365,0.44202 0.30545,-0.1172 0.80266,0.21681 1.18002,0.79276 0.35869,0.54742 0.75333,0.85785 0.87699,0.68984 0.35151,-0.47761 1.85662,-1.2487 2.4374,-1.2487 0.28877,0 0.75796,-0.32343 1.04266,-0.71876 0.37684,-0.52329 1.11526,-0.76323 2.71509,-0.88227 1.98831,-0.14792 2.1802,-0.0975 2.01607,0.53014 -0.0997,0.38148 0.015,0.71316 0.25491,0.73706 1.15188,0.1147 1.99937,-0.1518 2.55885,-0.80468 0.71134,-0.83011 1.08437,-0.61149 1.08437,0.63547 0,0.48418 0.15975,0.88033 0.35503,0.88033 0.6295,0 0.82269,-0.71848 0.40371,-1.50135 -0.22874,-0.4274 -0.25414,-0.76236 -0.0579,-0.76236 0.1926,0 0.45097,0.26263 0.57415,0.58363 0.12318,0.32098 0.43846,0.55554 0.70062,0.52123 1.60376,-0.20996 2.04868,0.0418 2.04868,1.15885 0,0.69169 -0.19563,1.13187 -0.50305,1.13187 -0.27667,0 -0.50304,0.16977 -0.50304,0.37728 0,0.20751 -0.52921,0.37729 -1.17601,0.37729 -0.8764,0 -1.54915,0.38449 -2.64059,1.50915 -0.80552,0.83002 -1.63455,1.50914 -1.84229,1.50914 -0.20773,0 -0.37878,0.12733 -0.38009,0.28296 -10e-4,0.15564 -0.51065,0.57219 -1.13186,0.92567 -1.08232,0.61588 -1.12948,0.61301 -1.12948,-0.0687 0,-0.39122 -0.4931,-1.06245 -1.09578,-1.49159 -1.18793,-0.84589 -1.92251,-0.99986 -1.92251,-0.40297 0,0.20751 -0.20213,0.33483 -0.4492,0.28296 -0.8123,-0.17057 -0.76035,1.11786 0.0537,1.33073 0.52834,0.13816 0.77285,0.51168 0.77285,1.18063 0,0.5382 0.12734,0.97866 0.28297,0.9788 0.15563,1.5e-4 0.30643,0.40825 0.3351,0.90687 0.0439,0.76136 -0.15091,0.93031 -1.21536,1.05457 -0.80565,0.094 -1.33588,-0.0302 -1.45513,-0.34093 z m -3.98416,-5.01635 c 0,-0.2075 -0.1798,-0.37729 -0.39955,-0.37729 -0.21975,0 -0.29462,0.16979 -0.16638,0.37729 0.12825,0.20752 0.30805,0.37729 0.39956,0.37729 0.0915,0 0.16637,-0.16977 0.16637,-0.37729 z m 2.26372,0 c -0.48364,-0.31256 -0.46992,-0.36657 0.0943,-0.37152 0.6555,-0.005 0.86786,-0.42697 0.43397,-0.86087 -0.27851,-0.2785 -2.03745,0.48811 -2.03745,0.888 0,0.15898 0.29711,0.36671 0.66026,0.46159 1.14741,0.29986 1.43319,0.2604 0.84889,-0.1172 z m 0.70054,-2.59962 c 0.37352,-0.23669 0.39414,-0.39712 0.0763,-0.59359 -0.5405,-0.33406 -1.53136,0.0156 -1.53136,0.54037 0,0.47058 0.75296,0.49812 1.45511,0.0533 z m 6.49118,7.52673 c -0.50597,-0.38431 -1.18507,-0.60266 -1.50914,-0.48523 -0.45456,0.16472 -0.42496,0.0265 0.12951,-0.60504 1.2912,-1.47053 2.72981,-0.86289 2.42374,1.02372 -0.12168,0.75003 -0.1425,0.75136 -1.04411,0.0666 z m 4.50417,-5.42124 c 0,-0.71084 0.55611,-0.91346 1.94679,-0.70935 1.30541,0.1916 1.42765,0.82619 0.15915,0.82619 -0.50181,0 -1.18092,0.103 -1.50916,0.22901 -0.38326,0.14707 -0.59678,0.0234 -0.59678,-0.34585 z m 8.37976,-3.85902 c -0.267564,-0.30337 -0.94668,-0.56498 -1.50915,-0.58136 -0.56247,-0.0164 -0.81044,-0.11543 -0.55105,-0.22008 0.99818,-0.40278 0.40168,-0.8833 -1.13186,-0.91179 -0.88191,-0.0164 -1.34881,-0.12171 -1.03754,-0.23407 0.31125,-0.11236 0.83982,-0.54794 1.17459,-0.96794 0.60164,-0.75481 0.61879,-0.74994 1.48577,0.42272 0.48242,0.65251 1.09389,1.18637 1.358826,1.18637 0.427299,0 1.262825,1.10689 1.262825,1.67298 0,0.38811 -0.558166,0.19355 -1.052411,-0.36683 z m 32.482959,-1.0875 c 0.06866,-0.2061 0.622555,-0.65047 1.230744,-0.98747 1.785772,-0.98948 1.530432,-2.97645 -0.308961,-2.40408 -0.363136,0.113 -0.660255,0.0243 -0.660255,-0.19725 0,-0.2215 0.17982,-0.40272 0.399547,-0.40272 0.219772,0 0.299229,-0.16236 0.176572,-0.36081 -0.122656,-0.19844 -0.472214,-0.26517 -0.776833,-0.14828 -0.304619,0.1169 -0.553858,0.0246 -0.553858,-0.20511 0,-0.22971 0.212227,-0.37521 0.471613,-0.32333 0.298508,0.0597 0.445536,-0.28649 0.400564,-0.94323 -0.03903,-0.57064 0.102452,-1.03752 0.314427,-1.03752 0.211998,0 0.31821,-0.20163 0.236074,-0.44803 -0.196986,-0.59099 1.041576,-1.80774 1.878579,-1.84548 0.394419,-0.0178 0.470366,-0.10639 0.188654,-0.22009 -0.259385,-0.10463 -0.471613,-0.58711 -0.471613,-1.0721 0,-0.68487 -0.26904,-0.94089 -1.204787,-1.14642 -1.662218,-0.36507 -2.951743,-1.68176 -1.647129,-1.68176 0.29901,0 0.65984,-0.18797 0.801817,-0.4177 0.17374,-0.2811 -0.0044,-0.33449 -0.543668,-0.16323 -0.503265,0.15974 -0.801816,0.0914 -0.801816,-0.18355 0,-0.24091 0.34315,-0.52775 0.762531,-0.63743 0.581893,-0.15217 0.664706,-0.31725 0.34971,-0.69683 -0.227053,-0.27358 -0.678242,-0.39557 -1.002673,-0.27108 -0.396977,0.15234 -0.531858,0.0525 -0.412569,-0.30539 0.09753,-0.29245 0.332883,-0.55457 0.523079,-0.58249 0.950343,-0.13946 2.043648,-0.64045 2.043648,-0.93647 0,-0.1833 -0.169783,-0.33328 -0.377286,-0.33328 -0.207515,0 -0.377287,-0.25466 -0.377287,-0.56593 0,-0.31125 0.169772,-0.56592 0.377287,-0.56592 0.604974,0 0.435345,-0.81596 -0.28297,-1.36124 -0.614453,-0.46644 -0.604154,-0.50202 0.148275,-0.51321 0.842513,-0.0125 1.589135,-1.12583 0.783099,-1.16777 -0.252859,-0.0131 -0.06681,-0.18149 0.413356,-0.37409 0.48024,-0.1926 0.767321,-0.52139 0.637983,-0.73066 -0.138117,-0.22348 0.231887,-0.38048 0.896735,-0.38048 1.292477,0 1.811356,-0.5554 1.203322,-1.28802 -0.320244,-0.38587 -0.110018,-0.73326 0.91847,-1.51772 1.216858,-0.92815 1.322994,-1.16084 1.210593,-2.65504 -0.115222,-1.53219 -0.0422,-1.67632 1.132733,-2.23661 1.701711,-0.8115 2.773356,-3.6212 1.381172,-3.6212 -0.519678,0 -0.536047,-0.0916 -0.108574,-0.60676 0.425768,-0.51302 0.403768,-0.67975 -0.142469,-1.07914 -0.698918,-0.51108 -0.859832,-1.53299 -0.296243,-1.88132 0.192382,-0.11889 0.553409,-0.85047 0.802298,-1.62574 0.248867,-0.77526 0.712017,-1.70668 1.02921,-2.06981 0.438779,-0.50235 0.458514,-0.66026 0.08245,-0.66026 -0.337485,0 -0.267881,-0.25015 0.219467,-0.78861 0.392483,-0.43374 0.738684,-1.28582 0.769244,-1.89351 0.0609,-1.21099 1.588797,-3.72505 2.266361,-3.72917 0.233954,-10e-4 0.61558,-0.23172 0.847991,-0.5118 0.321785,-0.38771 0.239508,-0.72034 -0.344877,-1.39413 -0.545854,-0.62939 -0.701936,-1.18342 -0.540464,-1.91859 0.163747,-0.74555 0.01662,-1.24421 -0.528578,-1.78919 -0.415544,-0.41557 -0.586682,-0.81188 -0.380271,-0.88069 0.460449,-0.15347 0.01848,-1.43121 -0.495001,-1.43121 -0.20301,0 -0.877906,-0.57469 -1.499751,-1.27708 -0.807732,-0.91231 -1.364269,-1.22759 -1.948566,-1.10385 -0.782574,0.16573 -0.787779,0.14864 -0.119902,-0.3956 0.777129,-0.63328 0.543405,-1.3705 -0.437313,-1.3794 -0.350913,-0.003 -0.892667,-0.16777 -1.203923,-0.36577 -0.466856,-0.29698 -0.483225,-0.49345 -0.09349,-1.12234 0.40426,-0.6523 0.363399,-0.83045 -0.28297,-1.23413 -0.4155,-0.25948 -0.755435,-0.6856 -0.755435,-0.94696 0,-0.26134 -0.169782,-0.47516 -0.377286,-0.47516 -0.207515,0 -0.377285,-0.24286 -0.377285,-0.53969 0,-0.29684 -0.38201,-0.60608 -0.8489,-0.68723 -0.810411,-0.14084 -0.800833,-0.16764 0.211353,-0.59146 0.583139,-0.24417 0.9551,-0.61403 0.826638,-0.82193 -0.128507,-0.20789 -0.01137,-0.3806 0.260248,-0.38377 0.399253,-0.004 0.401101,-0.0647 0.0098,-0.31312 -0.266405,-0.16905 -0.401548,-0.54846 -0.300322,-0.84312 0.313334,-0.91198 -1.024563,-3.16522 -1.958265,-3.29807 -0.468858,-0.0667 -0.755031,-0.27894 -0.635961,-0.47161 0.119115,-0.19267 0.04997,-0.35032 -0.153741,-0.35032 -0.203656,0 -0.570302,-0.60599 -0.814752,-1.34667 -0.456251,-1.38243 -1.664515,-2.18009 -2.56442,-1.69299 -0.808105,0.4374 -3.086241,-0.45048 -3.086241,-1.20281 0,-0.76149 -0.599354,-0.89105 -0.881985,-0.19064 -0.113669,0.28173 -0.202299,0.20579 -0.2201,-0.18864 -0.02569,-0.57311 -0.680024,-0.85545 -1.633243,-0.70493 -0.155634,0.0246 -0.282959,-0.19585 -0.282959,-0.48982 0,-0.29397 -0.184575,-0.59601 -0.410109,-0.67119 -0.225589,-0.0752 -0.422225,-0.93823 -0.437051,-1.91788 -0.0328,-2.17395 -0.478895,-2.2912 -1.08025,-0.284 -0.332915,1.11116 -0.339147,1.62904 -0.02416,2.00861 0.477233,0.57504 -0.08441,1.39895 -0.953591,1.39895 -0.269762,0 -0.490474,0.16979 -0.490474,0.37728 0,0.20751 0.424444,0.3773 0.943215,0.3773 0.51877,0 0.943214,0.16978 0.943214,0.37728 0,0.20752 -0.162609,0.37729 -0.361366,0.37729 -0.198746,0 -0.314044,0.60072 -0.256214,1.33493 0.07205,0.91497 -0.0374,1.28033 -0.34725,1.16134 -0.467951,-0.17957 -1.298885,0.444 -1.298885,0.97476 0,0.16601 0.349591,0.30183 0.776833,0.30183 0.427276,0 0.671911,0.16978 0.543668,0.37729 -0.128233,0.2075 -0.647616,0.37728 -1.154119,0.37728 -1.05531,0 -1.212594,0.55386 -0.302061,1.06344 0.747519,0.41834 0.359824,1.20029 -0.595122,1.20029 -0.377483,0 -0.919226,0.32375 -1.203923,0.71946 -0.664258,0.92326 -2.307703,1.46914 -1.998688,0.66388 0.325011,-0.847 -0.587939,-1.17482 -1.290486,-0.46342 -0.580614,0.58796 -0.579028,0.6575 0.02264,0.99901 0.514779,0.29221 0.5725,0.5622 0.282969,1.32371 -0.486844,1.28049 -0.496421,1.25302 0.579509,1.66209 0.936523,0.35606 1.309162,1.13186 0.543657,1.13186 -0.21975,0 -0.294626,-0.16978 -0.166371,-0.37729 0.128243,-0.20751 -0.137188,-0.37728 -0.589864,-0.37728 -0.696414,0 -0.749247,0.0888 -0.343379,0.57794 0.42124,0.50756 0.354937,0.53054 -0.544432,0.18859 -0.630484,-0.2397 -1.269921,-0.2578 -1.663663,-0.0471 -0.351754,0.18827 -1.079615,0.25816 -1.617465,0.15535 -0.756966,-0.14471 -1.458071,0.20418 -3.103265,1.54419 -1.168967,0.95214 -2.297556,1.73116 -2.508001,1.73116 -0.210434,0 -0.382621,0.16977 -0.382621,0.37728 0,0.20751 -0.390483,0.37729 -0.86776,0.37729 -0.477265,0 -1.063193,0.19543 -1.302044,0.4343 -0.960905,0.9609 -7.646582,0.16796 -10.369852,-1.22988 -0.36033,-0.18495 -0.72637,-0.33629 -0.81343,-0.33629 -0.33014,0 -1.33652,3.50739 -1.11105,3.87221 0.15407,0.24929 -0.2552,0.29018 -1.17585,0.11747 -0.96096,-0.18028 -1.33293,-0.1367 -1.16413,0.13642 0.14314,0.2316 -0.0657,0.40134 -0.49348,0.40134 -0.53746,0 -0.69096,-0.19332 -0.55781,-0.70254 0.10759,-0.41134 -0.0514,-0.79276 -0.38352,-0.9202 -0.42972,-0.16493 -0.5554,-0.79588 -0.51839,-2.603 0.0269,-1.31192 -0.0811,-2.59561 -0.23999,-2.85265 -0.15886,-0.25704 -0.18392,-0.63712 -0.0557,-0.84463 0.12825,-0.20751 0.0534,-0.37728 -0.16638,-0.37728 -0.21976,0 -0.39956,-0.24053 -0.39956,-0.53449 0,-0.29397 -0.17949,-0.59433 -0.39887,-0.66745 -0.2194,-0.0732 -0.29023,-0.41612 -0.15743,-0.76219 0.14807,-0.38582 0.47364,-0.54014 0.84168,-0.39891 0.45095,0.17304 0.53807,0.0685 0.3503,-0.42088 -0.23975,-0.62481 0.61076,-2.38393 1.42854,-2.95462 0.21112,-0.14734 0.73097,0.16745 1.15523,0.69952 0.71988,0.90282 0.9341,0.95464 3.20908,0.7764 2.75602,-0.21595 3.4741,-0.43551 5.07713,-1.5524 2.044745,-1.42464 3.566451,-2.108 4.694034,-2.108 1.193765,0 2.031949,0.73473 0.894799,0.78436 -0.440888,0.0193 -0.299754,0.16909 0.398651,0.42326 0.814063,0.29628 1.154196,0.27534 1.376755,-0.0847 0.162566,-0.26304 0.567372,-0.37396 0.899577,-0.24647 0.372563,0.14297 0.604012,0.0338 0.604012,-0.28477 0,-0.36184 0.394113,-0.47991 1.316018,-0.39422 1.353619,0.12581 1.847319,-0.15083 1.394413,-0.78136 -0.324332,-0.45152 -1.686786,-0.46998 -2.008473,-0.0272 -0.348661,0.47989 -3.792069,-0.0993 -3.490578,-0.58709 0.134356,-0.2174 0.02514,-0.53066 -0.242525,-0.69613 -0.383572,-0.23706 -0.351766,-0.43592 0.150003,-0.93768 0.651464,-0.65147 1.749273,-0.53066 1.749273,0.19249 0,0.28453 0.22103,0.2841 0.754584,-10e-4 0.9736,-0.52107 0.959363,-0.9903 -0.03795,-1.25112 -0.439937,-0.11504 -0.681084,-0.38759 -0.542015,-0.61259 0.137778,-0.22295 -0.01487,-0.5072 -0.339335,-0.63169 -0.827752,-0.31765 -0.735557,-0.90019 0.142469,-0.90019 0.402762,0 0.852453,-0.19439 0.999295,-0.43199 0.181995,-0.29448 -0.02788,-0.37562 -0.659414,-0.25489 -0.828485,0.15837 -0.930159,0.0445 -0.961945,-1.07717 -0.01957,-0.68983 0.135581,-1.25424 0.344758,-1.25424 0.209166,0 0.289946,-0.23546 0.179524,-0.52322 -0.140851,-0.36705 0.01607,-0.46654 0.525561,-0.3333 0.445338,0.11646 0.726351,-0.002 0.726351,-0.3068 0,-0.38081 0.103544,-0.39316 0.44383,-0.053 0.340242,0.34024 0.290481,0.61327 -0.213223,1.16986 -0.753456,0.83255 -0.394463,1.22561 0.712608,0.78025 0.424334,-0.1707 0.522586,-0.31517 0.224484,-0.33008 -0.401942,-0.0201 -0.356347,-0.22224 0.188643,-0.83621 0.533793,-0.60135 0.593548,-0.85342 0.232215,-0.97963 -0.267575,-0.0934 -0.98835,-0.70532 -1.601721,-1.35969 l -1.115206,-1.18978 -0.0316,1.13186 c -0.01739,0.62477 -0.128048,0.87832 -0.246965,0.56593 -0.118491,-0.31127 -0.402193,-0.68808 -0.630461,-0.83739 -0.301426,-0.19714 -0.300125,-0.45705 0.0044,-0.94944 0.31774,-0.51319 0.298682,-0.79112 -0.0784,-1.14338 -0.653936,-0.61086 -1.303497,-0.57125 -2.227829,0.13588 -0.723618,0.55357 -0.726559,0.59805 -0.07172,1.08365 0.790555,0.58627 0.572336,0.77871 -1.248763,1.10123 -1.235369,0.2188 -1.259697,0.20472 -0.377285,-0.21841 0.51877,-0.24876 1.009714,-0.49957 1.090986,-0.55735 0.08124,-0.0578 -0.256991,-0.43283 -0.751696,-0.83342 -1.074564,-0.87012 -2.096842,-0.50131 -2.443961,0.88172 -0.30311,1.20769 -1.040858,1.43309 -1.797668,0.54921 -0.75047,-0.87651 -2.21626,-0.99689 -1.89339,-0.15552 0.1683,0.43859 -0.089,0.56593 -1.14371,0.56593 -0.75048,0 -1.36086,0.18896 -1.36086,0.42129 0,0.23547 0.33265,0.3343 0.75419,0.22406 0.95028,-0.2485 1.34478,0.34173 0.72641,1.08683 -0.36109,0.43508 -0.53777,0.45886 -0.75829,0.10201 -0.47403,-0.76697 -1.56846,0.39061 -1.31691,1.39286 0.12905,0.51416 -0.11331,1.32218 -0.63598,2.12035 -1.56903,2.39603 -2.16501,3.63171 -2.16501,4.48878 0,0.46945 -0.11171,0.74186 -0.24825,0.60531 -0.13654,-0.13653 -0.45358,-0.0778 -0.70452,0.13042 -0.31554,0.26188 -0.6023,0.2027 -0.9298,-0.19193 -0.65615,-0.79055 -1.13571,-0.71285 -1.13571,0.18406 0,0.79949 -0.5495,1.01436 -0.94744,0.37046 -0.14603,-0.23629 -0.66307,-0.081 -1.3435,0.4035 -0.98258,0.69966 -1.16923,0.7245 -1.67131,0.22243 -0.31078,-0.31086 -0.56512,-0.83199 -0.56512,-1.15807 0,-0.80195 -0.18405,-0.75183 -1.2862,0.35033 -0.5824,0.58239 -1.34669,0.93183 -1.99791,0.91343 -0.58008,-0.0164 -0.85219,-0.11217 -0.60471,-0.21287 0.24749,-0.1007 0.6565,-1.10596 0.90893,-2.23393 0.2764,-1.2351 0.66019,-2.05086 0.96485,-2.05086 0.27824,0 0.50589,-0.14379 0.50589,-0.31955 0,-0.17576 0.33956,-0.71108 0.75458,-1.18959 0.41501,-0.47853 0.75457,-1.24219 0.75457,-1.69704 0,-0.45487 0.34082,-1.13545 0.75738,-1.51244 0.41656,-0.37697 1.01175,-1.1953 1.32265,-1.81852 0.50481,-1.01192 0.50277,-1.20214 -0.0191,-1.77879 -0.49285,-0.5446 -0.501,-0.67771 -0.0521,-0.84998 0.67796,-0.26016 1.02263,-1.98856 0.50064,-2.51054 -0.21819,-0.21819 -0.26574,-0.39672 -0.10562,-0.39672 0.16007,0 0.0154,-0.27567 -0.32156,-0.6126 -0.41506,-0.41506 -0.53829,-0.95095 -0.38215,-1.66188 0.12885,-0.58664 0.0544,-1.15809 -0.16892,-1.2961 -0.62512,-0.38634 -0.47057,-0.85022 0.3552,-1.06617 0.48946,-0.12801 0.75458,-0.51463 0.75458,-1.10042 0,-0.49668 0.19816,-1.10125 0.44038,-1.34344 0.33563,-0.33566 0.26833,-0.49548 -0.28298,-0.67209 -0.39783,-0.12743 -1.13842,-0.39911 -1.64576,-0.6037 -0.74291,-0.29962 -1.03661,-0.23086 -1.50914,0.35327 -0.66076,0.81681 -1.83583,1.37465 -2.61871,1.24318 -0.35868,-0.0603 -0.44126,0.12475 -0.26302,0.58924 0.14289,0.37238 0.14362,0.56087 9.9e-4,0.41886 -0.14199,-0.142 -0.57541,-0.0884 -0.96314,0.1191 -0.49103,0.26279 -0.70497,0.25058 -0.70497,-0.0403 0,-0.23076 -0.2652,-0.15231 -0.59289,0.17537 -0.70312,0.70313 -1.17605,0.75673 -1.37629,0.15601 -0.20965,-0.62932 -2.18087,-0.0574 -2.18087,0.63269 0,0.36576 -0.38009,0.55875 -1.10041,0.55875 -0.60523,0 -1.15701,0.12734 -1.22619,0.28296 -0.0691,0.15564 -1.04131,0.7447 -2.16034,1.30905 -1.119,0.56432 -2.22758,1.41323 -2.46349,1.88642 -0.30084,0.60341 -0.76038,0.86037 -1.53868,0.86037 -1.04449,0 -1.11242,-0.093 -1.15535,-1.58242 -0.0401,-1.39263 0.0797,-1.63431 0.99875,-2.01501 0.57439,-0.23793 1.40834,-0.31707 1.85321,-0.17587 0.6289,0.1996 0.85651,0.0745 1.023,-0.56209 0.13736,-0.52531 0.43616,-0.76076 0.83356,-0.65683 0.34069,0.0891 0.82844,-0.0618 1.0839,-0.33524 0.25546,-0.27347 1.03533,-0.47575 1.73306,-0.44951 1.66319,0.0626 2.73625,-0.98216 2.97945,-2.90063 0.33162,-2.61607 1.10268,-4.855 2.19124,-6.36275 0.91698,-1.27009 1.0247,-1.6942 0.83566,-3.29026 -0.11934,-1.00774 -0.009,-2.88949 0.24523,-4.1817 0.40792,-2.07339 0.39036,-2.40202 -0.14935,-2.79666 -0.50909,-0.37226 -0.53668,-0.61158 -0.16463,-1.42814 0.39648,-0.87015 0.33391,-1.094 -0.55397,-1.98187 -0.55051,-0.55051 -1.00092,-1.13987 -1.00092,-1.30967 0,-0.63558 2.78902,-0.83465 4.2725,-0.30494 1.3776,0.4919 1.58487,0.77261 3.03613,4.11216 1.44438,3.32371 2.6172,5.4468 4.42042,8.00207 0.39677,0.56224 0.7214,1.12397 0.7214,1.2483 0,0.53997 2.48899,3.25357 3.84825,4.19555 0.81709,0.56625 2.4502,1.24414 3.6291,1.50643 1.17891,0.2623 3.41681,0.75862 4.973123,1.10295 1.972993,0.43653 3.618942,0.55423 5.436793,0.38879 2.579957,-0.2348 9.124619,0.27079 12.177992,0.94078 1.957489,0.42952 3.101276,0.0313 4.953711,-1.72459 0.76404,-0.72426 1.571849,-1.31832 1.795055,-1.32011 0.535368,-0.004 2.046512,-1.62656 2.046512,-2.197 0,-0.56521 0.476326,-0.57462 1.030599,-0.0204 0.317718,0.31771 1.01037,-0.0925 2.707676,-1.60347 1.254437,-1.11672 2.284729,-2.30798 2.28953,-2.64726 0.0044,-0.33927 0.43131,-0.89369 0.947697,-1.23205 0.774089,-0.50721 1.071655,-0.53232 1.694966,-0.14306 0.477419,0.29815 0.678209,0.71747 0.544804,1.13776 -0.315979,0.99556 1.169929,0.85984 1.893296,-0.17295 0.769366,-1.09841 0.740959,-1.4252 -0.12386,-1.4252 -0.391138,0 -0.974234,-0.40145 -1.295713,-0.89211 -0.543755,-0.82988 -0.520816,-0.98591 0.329221,-2.23681 0.921816,-1.35662 2.102647,-2.02404 2.808814,-1.5876 0.210828,0.13031 0.480633,-0.0167 0.599551,-0.32657 0.297982,-0.77649 2.230137,-1.38978 3.548079,-1.12619 1.217841,0.24356 2.373742,1.7792 3.702727,4.91901 1.344129,3.17556 2.000187,7.10163 2.226333,13.32344 0.1974,5.42961 0.148843,6.05038 -0.678472,8.6776 -1.542798,4.89924 -1.037312,11.15934 1.104698,13.68152 0.310688,0.36581 0.564868,1.17225 0.564868,1.79211 0,0.61984 0.12352,1.12699 0.274518,1.12699 0.150954,0 0.26927,0.382 0.262895,0.84889 -0.01848,1.34072 0.397011,3.59419 0.801916,4.35076 0.203622,0.38049 0.317531,1.35598 0.25312,2.16775 -0.0644,0.81176 0.110432,2.12084 0.388536,2.90907 0.278094,0.78822 0.494466,2.36766 0.480853,3.50986 -0.01356,1.14222 0.155437,2.29398 0.375809,2.55948 0.220341,0.26548 0.303045,0.85588 0.183745,1.31197 -0.136095,0.52051 -0.04494,0.82926 0.244822,0.82926 0.255339,0 0.364602,0.2529 0.244482,0.56593 -0.129381,0.33712 -0.0033,0.56593 0.311485,0.56593 0.290777,0 0.6329,0.3284 0.760269,0.72977 0.27315,0.86057 -0.804792,2.28852 -1.72756,2.28852 -0.343477,0 -0.835876,0.25467 -1.0942,0.56593 -0.258336,0.31127 -0.958238,0.56593 -1.555329,0.56593 -0.836598,0 -1.085683,0.17431 -1.085683,0.7597 0,0.41783 -0.212228,1.10213 -0.471614,1.52066 -0.347436,0.56065 -0.358949,0.83242 -0.04363,1.03241 0.235386,0.1493 0.491797,0.61102 0.569777,1.02603 0.08212,0.43661 0.49791,0.80538 0.986875,0.87514 0.464779,0.0663 0.845038,0.38512 0.845038,0.70847 0,0.60386 0.392233,0.59306 4.150156,-0.11432 1.056862,-0.19894 1.231202,-0.15305 0.87316,0.22982 -0.34643,0.37044 -0.325152,0.6006 0.09436,1.02005 0.812413,0.81242 0.655008,1.59524 -0.401548,1.99693 -0.662322,0.25182 -0.943215,0.64225 -0.943215,1.31116 0,0.76454 0.186194,0.95256 0.943215,0.95256 0.69168,0 0.943226,0.20121 0.943226,0.75457 0,0.41502 0.18158,0.75457 0.403538,0.75457 0.221926,0 0.345217,0.38201 0.273993,0.8489 -0.07129,0.46689 -0.337716,0.80645 -0.592159,0.75457 -0.254476,-0.0519 -0.462658,0.1462 -0.462658,0.44018 0,0.29396 -0.212228,0.61229 -0.471613,0.70741 -0.370988,0.13603 -0.373547,0.277 -0.01202,0.66082 0.372224,0.39514 0.651006,0.2965 1.466283,-0.51878 0.916842,-0.91683 1.658326,-1.28602 1.658326,-0.82566 0,0.0995 -0.263037,0.83843 -0.584527,1.64194 -0.321523,0.80351 -0.533751,1.69829 -0.471613,1.98839 0.106496,0.49753 1.167327,1.16445 1.999355,1.257 0.207515,0.0231 0.327416,0.33527 0.266448,0.69375 -0.06101,0.35849 0.100373,0.6518 0.358414,0.6518 0.350017,0 0.360459,0.10879 0.04111,0.42812 -0.429616,0.4296 0.127446,1.66296 1.309861,2.90008 0.58151,0.60843 0.606942,1.07406 0.07665,1.40183 -0.254705,0.15742 -0.166458,0.41781 0.243127,0.71729 0.594827,0.43496 0.58034,0.51403 -0.193771,1.05625 -0.518323,0.36304 -0.68267,0.68135 -0.431769,0.83638 0.726351,0.44892 0.426564,1.31784 -0.538234,1.55999 -0.518771,0.13021 -0.943225,0.43215 -0.943225,0.671 0,0.52071 1.480966,1.55483 2.232826,1.55914 0.705599,0.004 0.990756,0.90178 0.34525,1.08703 -3.906536,1.12118 -5.384485,2.00426 -5.005833,2.99098 0.556001,1.44903 -4.741822,4.13315 -6.271861,3.17761 -0.512625,-0.32012 -0.590158,-0.5916 -0.315531,-1.10476 0.277383,-0.51825 0.226146,-0.68033 -0.215092,-0.68033 -0.318582,0 -0.579213,0.27284 -0.579213,0.6063 0,0.38392 -0.20758,0.52665 -0.565929,0.38913 -0.444289,-0.17049 -0.575321,0.12493 -0.609697,1.37445 -0.02416,0.8754 -0.121826,1.29244 -0.217203,0.92677 -0.215507,-0.8262 -0.870886,-0.48145 -0.870886,0.45811 0,0.83271 0.753172,1.17836 1.90903,0.87608 0.593471,-0.15519 0.767364,-0.0886 0.576272,0.22061 -0.150538,0.24359 -0.421317,0.35165 -0.601738,0.24014 -0.180421,-0.1115 -0.465795,0.0307 -0.634178,0.31606 -0.427396,0.72422 -1.941328,1.46675 -2.405583,1.17983 -0.212293,-0.1312 -0.60049,-0.0606 -0.862588,0.15697 -0.26214,0.21756 -1.23094,0.47063 -2.152877,0.56239 -0.921971,0.0917 -1.975323,0.28686 -2.3408,0.43353 -0.506207,0.20312 -0.609544,0.12333 -0.433726,-0.33485 0.199883,-0.52087 0.07402,-0.54686 -0.938918,-0.19376 -0.942876,0.3287 -1.169776,0.61848 -1.169776,1.49405 0,1.34677 -1.251529,2.25017 -3.332265,2.40535 -0.818678,0.0611 -1.666636,0.22111 -1.88433,0.35566 -0.602066,0.3721 -2.732835,0.11972 -2.590673,-0.30686 z m 6.298124,-3.7806 c 0,-0.0915 -0.169783,-0.27131 -0.377287,-0.39956 -0.207514,-0.12825 -0.377286,-0.0534 -0.377286,0.16638 0,0.21974 0.169772,0.39955 0.377286,0.39955 0.207504,0 0.377287,-0.0748 0.377287,-0.16637 z m -3.77287,-1.34278 c 0,-0.20751 -0.34959,-0.37729 -0.776833,-0.37729 -0.427276,0 -0.671911,0.16978 -0.543668,0.37729 0.128234,0.2075 0.477835,0.37728 0.776833,0.37728 0.299033,0 0.543668,-0.16978 0.543668,-0.37728 z m 13.582323,-1.3205 c 0,-0.31127 -0.159744,-0.56592 -0.355035,-0.56592 -0.475757,0 -0.816479,0.58915 -0.515064,0.89059 0.424902,0.42488 0.870099,0.25877 0.870099,-0.32467 z m 2.538834,-33.99511 c -0.125368,-0.12537 -0.450783,-0.13876 -0.723148,-0.0298 -0.300955,0.12044 -0.211581,0.20983 0.227962,0.22794 0.3977,0.0164 0.620555,-0.0728 0.495186,-0.19816 z m 2.338351,-10.19968 c 0.08867,-0.0793 -0.166043,-0.38499 -0.565929,-0.67928 -0.685721,-0.50467 -0.688859,-0.54988 -0.05554,-0.79535 0.786717,-0.30493 0.560987,-1.56625 -0.426631,-2.38361 -0.429691,-0.35563 -0.483573,-0.56715 -0.174121,-0.68382 0.585511,-0.22077 -0.790753,-1.63091 -1.591729,-1.63091 -0.972123,0 -1.074968,1.08327 -0.172231,1.81425 l 0.840557,0.68063 -1.053921,0.69054 c -0.975284,0.63905 -1.004554,0.72659 -0.392713,1.174 0.525484,0.38425 0.577628,0.63953 0.25406,1.24414 -0.223915,0.41839 -0.407124,0.86715 -0.407124,0.99726 0,0.2369 3.441943,-0.15628 3.745327,-0.42785 z m -53.718436,-14.01423 c 0.424586,-0.35622 1.046682,-1.3268 1.382452,-2.15684 0.540769,-1.33681 0.74098,-1.49854 1.753363,-1.41628 1.688186,0.13716 1.821426,-0.58928 0.230038,-1.25421 -1.319625,-0.55137 -1.448711,-0.5374 -2.651552,0.2868 -1.472426,1.00892 -2.621206,3.26027 -2.253996,4.41728 0.30285,0.95418 0.52789,0.9722 1.539695,0.12325 z m 10.358008,-5.91643 c 0,-0.58794 -1.430321,-1.53836 -1.783552,-1.18514 -0.115374,0.11538 0.196275,0.54794 0.692565,0.96124 1.095098,0.91197 1.090987,0.91113 1.090987,0.2239 z m -0.377286,-4.87763 c 0,-0.35792 -1.129364,-0.53829 -1.330691,-0.21254 -0.122646,0.19844 0.126582,0.36082 0.553847,0.36082 0.427265,0 0.776844,-0.0667 0.776844,-0.14828 z m 11.865664,-2.14215 c 0.222484,-0.21761 -0.08418,-0.35059 -0.80853,-0.35059 -0.72506,0 -1.255269,0.2302 -1.400219,0.60791 -0.192415,0.50138 -0.05074,0.56281 0.80853,0.35058 0.572981,-0.14152 1.203093,-0.41507 1.400219,-0.6079 z m 0.03434,-2.63941 c 0.136762,-0.22132 0.173926,-0.47716 0.08256,-0.56855 -0.280706,-0.28072 -2.55038,0.28955 -2.55038,0.64081 0,0.47267 2.170373,0.40911 2.467862,-0.0722 z m 6.02108,0.0251 c 0.128244,-0.20751 -0.02154,-0.37729 -0.332762,-0.37729 -0.311267,0 -0.670862,0.16978 -0.799095,0.37729 -0.128244,0.2075 0.02154,0.37729 0.332763,0.37729 0.311267,0 0.670851,-0.16979 0.799094,-0.37729 z m -11.695882,-0.75457 c -0.128256,-0.20752 -0.392944,-0.3773 -0.588202,-0.3773 -0.195258,0 -0.355024,0.16978 -0.355024,0.3773 0,0.2075 0.264699,0.37728 0.588202,0.37728 0.323512,0 0.483267,-0.16978 0.355024,-0.37728 z m 0.377285,-2.64102 c -0.128254,-0.20749 -0.392943,-0.37728 -0.588201,-0.37728 -0.195258,0 -0.355013,0.16979 -0.355013,0.37728 0,0.20751 0.264688,0.3773 0.58819,0.3773 0.323513,0 0.483268,-0.16979 0.355024,-0.3773 z m 6.791156,-0.75457 c 0.128245,-0.2075 -0.03127,-0.37728 -0.355024,-0.37728 -0.323491,0 -0.58819,0.16978 -0.58819,0.37728 0,0.20751 0.159744,0.37729 0.355024,0.37729 0.195248,0 0.459946,-0.16978 0.58819,-0.37729 z m -6.904344,-0.83004 c -0.352137,-0.35212 -0.553354,-0.35212 -0.905492,0 -0.352127,0.35214 -0.251524,0.45276 0.452751,0.45276 0.704266,0 0.804868,-0.1006 0.452741,-0.45276 z m -1.985895,-2.75418 c 0,-0.2075 -0.249261,-0.0478 -0.553923,0.35508 -0.304662,0.40279 -0.553934,0.90214 -0.553934,1.10965 0,0.20751 0.249272,0.0477 0.553934,-0.35508 0.304662,-0.4028 0.553923,-0.90215 0.553923,-1.10965 z m -6.38987,0.18864 c 0,-0.2075 -0.179797,-0.37728 -0.399558,-0.37728 -0.21975,0 -0.294615,0.16978 -0.16637,0.37728 0.128243,0.20751 0.308041,0.37729 0.399547,0.37729 0.09152,0 0.166381,-0.16978 0.166381,-0.37729 z m -3.993243,-0.99657 c 0.198714,-0.5178 0.143498,-0.54115 -0.336917,-0.14245 -0.654679,0.54335 -0.72282,0.76175 -0.237649,0.76175 0.185308,0 0.443862,-0.27868 0.574566,-0.6193 z m 7.011573,-0.13527 c 0,-0.20751 -0.169781,-0.37729 -0.377285,-0.37729 -0.207504,0 -0.377286,0.16978 -0.377286,0.37729 0,0.2075 0.169782,0.37728 0.377286,0.37728 0.207504,0 0.377285,-0.16978 0.377285,-0.37728 z m -6.602513,-1.13187 c 0.128245,-0.20751 -0.02154,-0.37728 -0.332762,-0.37728 -0.311256,0 -0.670851,0.16977 -0.799106,0.37728 -0.128243,0.20751 0.02154,0.3773 0.332763,0.3773 0.311255,0 0.670851,-0.16979 0.799105,-0.3773 z m -1.131868,-1.13186 c 0.128255,-0.20751 0.05335,-0.37729 -0.166371,-0.37729 -0.219761,0 -0.399558,0.16978 -0.399558,0.37729 0,0.20751 0.0749,0.37729 0.166382,0.37729 0.09152,0 0.271304,-0.16978 0.399547,-0.37729 z m 5.6071,-2.07507 c 0.150364,-0.39187 -0.02547,-0.56593 -0.571768,-0.56593 -0.658484,0 -0.711273,0.0936 -0.319248,0.56593 0.258325,0.31127 0.515622,0.56593 0.571767,0.56593 0.05609,0 0.199807,-0.25466 0.319249,-0.56593 z m -18.62347,-5.84794 c 0,-0.20751 -0.16978,-0.37729 -0.37729,-0.37729 -0.20751,0 -0.37728,0.16978 -0.37728,0.37729 0,0.20749 0.16977,0.37728 0.37728,0.37728 0.20751,0 0.37729,-0.16979 0.37729,-0.37728 z m 14.032175,98.53996 c -1.209543,-0.17549 -0.791179,-1.03658 0.438604,-0.90276 0.850767,0.0926 0.99796,-0.0359 0.99796,-0.87116 0,-0.58264 0.159143,-0.8814 0.392637,-0.7371 0.438187,0.27082 0.113276,1.62659 -0.536736,2.23955 -0.232006,0.21878 -0.813614,0.34095 -1.292465,0.27147 z m -2.336305,-0.82271 c -0.340045,-0.21976 -0.38658,-0.36803 -0.116589,-0.37151 0.24714,-0.003 0.554273,0.164 0.682518,0.37151 0.289497,0.4684 0.158891,0.4684 -0.565929,0 z m 29.428361,-0.37729 c 0,-0.20751 0.179819,-0.37728 0.399547,-0.37728 0.219772,0 0.294626,0.16977 0.166382,0.37728 -0.128234,0.20751 -0.308053,0.37729 -0.399548,0.37729 -0.09152,0 -0.166381,-0.16978 -0.166381,-0.37729 z m -8.677596,-1.13185 c 0,-0.20752 0.169782,-0.37731 0.377297,-0.37731 0.207504,0 0.377285,0.16979 0.377285,0.37731 0,0.2075 -0.169781,0.37728 -0.377285,0.37728 -0.207515,0 -0.377297,-0.16978 -0.377297,-0.37728 z m -15.468753,-0.75453 c 0,-0.20751 0.254673,-0.37729 0.565929,-0.37729 0.311267,0 0.565929,0.16978 0.565929,0.37729 0,0.20751 -0.254662,0.37728 -0.565929,0.37728 -0.311256,0 -0.565929,-0.16977 -0.565929,-0.37728 z m -1.886429,-2.286 c 0,-0.21974 0.169782,-0.2946 0.377286,-0.16636 0.207504,0.12824 0.377285,0.30804 0.377285,0.39955 0,0.0915 -0.169781,0.16637 -0.377285,0.16637 -0.207504,0 -0.377286,-0.17979 -0.377286,-0.39956 z m 25.2272,-0.18114 c 1.610599,-0.69924 1.899068,-0.69842 0.972003,0.002 -0.402794,0.30466 -1.071907,0.55268 -1.486925,0.55116 -0.522391,-0.002 -0.363969,-0.17234 0.514922,-0.55393 z m 0,-3.97961 c 0.907296,-0.84515 1.93819,-0.73362 1.93819,0.20967 0,0.41441 -0.393469,0.57778 -1.391659,0.57778 l -1.391615,0 0.845237,-0.78745 z m -3.910506,-1.09899 c 0.128244,-0.20749 0.467797,-0.37728 0.754572,-0.37728 0.286774,0 0.626338,0.16979 0.754582,0.37728 0.13276,0.21483 -0.192153,0.3773 -0.754582,0.3773 -0.56242,0 -0.887331,-0.16247 -0.754572,-0.3773 z m 6.130911,0.12742 c 0.259385,-0.10464 0.683829,-0.10464 0.943215,0 0.259385,0.10464 0.04713,0.19031 -0.471603,0.19031 -0.51877,0 -0.730997,-0.0856 -0.471612,-0.19031 z m -1.697786,-7.16844 c -0.79155,-0.3194 -0.563818,-1.63656 0.282959,-1.63656 0.832596,0 1.005888,0.55473 0.30802,0.98602 -0.307004,0.18973 -0.218559,0.3653 0.282969,0.56169 0.458929,0.17971 0.519591,0.28446 0.163582,0.28242 -0.311255,-0.002 -0.778145,-0.0889 -1.03753,-0.19357 z m 0.568421,-2.70155 c -0.118053,-0.45139 -0.04942,-0.92276 0.152343,-1.04749 0.5814,-0.35933 0.737712,0.0423 0.386262,0.99233 l -0.323971,0.87585 -0.214634,-0.82069 z m -66.499263,-2.40962 c -1.59356,-0.55856 -2.33077,-1.29378 -2.58828,-2.58127 -0.13151,-0.65759 -0.46163,-1.11257 -0.8072,-1.11257 -0.32159,0 -0.74774,-0.4288 -0.94698,-0.95289 -0.19927,-0.52408 -0.66195,-1.06469 -1.02822,-1.20133 -1.46682,-0.54728 -3.26088,-3.9471 -2.95192,-5.59402 0.20221,-1.07788 0.11717,-1.24837 -0.72857,-1.46065 -0.92775,-0.23284 -0.93975,-0.27464 -0.38628,-1.34492 0.71672,-1.38601 0.71776,-1.65633 0.005,-1.38292 -0.75152,0.28838 -0.72164,-0.41191 0.0505,-1.18409 0.40407,-0.40407 0.46906,-0.6656 0.18865,-0.75907 -0.61151,-0.20384 -0.53021,-1.21158 0.0977,-1.21158 0.28907,0 0.62329,-0.25467 0.74274,-0.56593 0.11945,-0.31126 0.0319,-0.56594 -0.19448,-0.56594 -0.28631,0 -0.27934,-0.1594 0.0229,-0.5236 0.31823,-0.38344 0.3287,-0.99607 0.0392,-2.28827 -0.478,-2.13291 -0.28406,-2.55794 0.9526,-2.08777 1.08927,0.41413 1.25459,-0.0973 0.26912,-0.83258 -0.36339,-0.27115 -0.88501,-1.13324 -1.15914,-1.91574 -0.43922,-1.25377 -0.41675,-1.58988 0.18913,-2.82966 0.60328,-1.23451 0.87245,-1.42025 2.19667,-1.51579 1.0712,-0.0774 1.73876,-0.38657 2.30035,-1.0657 0.52864,-0.6393 1.31117,-1.02655 2.35805,-1.16698 1.45561,-0.19523 1.56769,-0.14637 1.57883,0.68843 0.0115,0.85983 0.0352,0.86787 0.55099,0.18663 0.43204,-0.57064 0.85237,-0.6699 2.11811,-0.50013 1.77687,0.23834 6.35726,2.42777 6.6444,3.17607 0.1031,0.26859 0.41247,0.48836 0.68754,0.48836 0.97979,0 1.57656,4.03108 0.81879,5.53075 -0.29785,0.58948 -0.47099,1.26843 -0.38475,1.5088 0.0862,0.24036 -0.0302,0.5526 -0.25873,0.69384 -0.29507,0.18236 -0.29896,0.39726 -0.0134,0.74132 0.22117,0.26649 0.29067,0.77495 0.15447,1.12991 -0.16298,0.4247 -0.33679,0.5012 -0.50829,0.22369 -0.43296,-0.70057 -1.57365,-0.0252 -1.31797,0.7804 0.16227,0.51129 0.0397,0.70989 -0.43815,0.70989 -0.60693,0 -0.60227,0.0448 0.0547,0.52511 0.57521,0.42059 0.62775,0.63399 0.26404,1.07224 -0.52954,0.63805 -0.24423,1.04365 0.7341,1.04365 0.91089,0 0.89513,1.14931 -0.019,1.38837 -0.49497,0.12943 -0.65064,0.41569 -0.51276,0.94292 0.15468,0.59151 0.43746,0.72189 1.29328,0.59629 1.34032,-0.19672 1.71627,0.29126 0.9104,1.18174 -0.80476,0.88924 -0.83816,1.83764 -0.0415,1.17641 0.63939,-0.53065 0.98809,9.9e-4 0.84151,1.28379 -0.0601,0.52481 0.2495,0.81005 1.135,1.04607 0.66961,0.17847 1.39039,0.64759 1.60172,1.04249 0.36415,0.68041 0.44854,0.68577 1.61219,0.10235 0.67535,-0.33858 1.88341,-0.65039 2.68458,-0.6929 0.80116,-0.0426 1.64156,-0.26221 1.86757,-0.48822 0.226,-0.226 0.97118,-0.41091 1.65596,-0.41091 0.78084,0 1.24504,-0.18602 1.24504,-0.49892 0,-0.36116 0.51046,-0.46777 1.8488,-0.38612 1.68129,0.10256 1.83114,0.0453 1.65378,-0.63294 -0.10726,-0.41016 -0.51476,-0.74575 -0.90558,-0.74575 -0.3908,0 -0.71057,-0.14148 -0.71057,-0.3144 0,-0.68129 0.5051,-0.7511 1.36375,-0.18849 0.84916,0.55639 0.89998,0.5453 0.89998,-0.19645 0,-0.87169 0.79157,-0.77209 1.98074,0.24925 0.86133,0.73973 0.84167,1.18147 -0.0423,0.95031 -0.41492,-0.10846 -0.7932,0.0526 -0.92401,0.39339 -0.15118,0.39398 -0.0497,0.51118 0.32001,0.36933 0.34904,-0.13393 0.68291,0.1642 0.93941,0.83885 0.46619,1.22616 0.24445,2.04837 -0.5524,2.04837 -0.34804,0 -0.48232,0.21789 -0.34877,0.56593 0.11944,0.31126 0.0292,0.56593 -0.20048,0.56593 -0.22971,0 -0.41765,0.25467 -0.41765,0.56593 0,0.31127 -0.32115,0.56592 -0.71367,0.56592 -0.44659,0 -0.80226,0.35298 -0.9504,0.94323 -0.13021,0.51876 -0.47855,0.94322 -0.77408,0.94322 -0.29555,0 -0.76426,0.32394 -1.04158,0.71987 -0.27731,0.39593 -1.51784,0.99757 -2.75671,1.33698 -1.23889,0.33942 -2.54732,0.77947 -2.90764,0.97792 -0.36032,0.19844 -0.91441,0.3608 -1.2313,0.3608 -0.72709,0 -2.16904,-0.79522 -2.56543,-1.41482 -0.54632,-0.85397 -1.03982,-0.49983 -0.78863,0.56593 0.20108,0.85311 0.15541,0.95371 -0.25691,0.56593 -0.5984,-0.56278 -1.24727,-0.62957 -0.91648,-0.0943 0.12826,0.20752 0.0649,0.37729 -0.14095,0.37729 -0.20576,0 -0.48645,-0.35394 -0.62376,-0.78655 -0.19061,-0.60053 -0.45822,-0.73418 -1.13162,-0.56518 -0.66532,0.16699 -0.94087,0.0358 -1.12171,-0.53396 -0.29502,-0.92951 -1.31626,-1.00236 -1.33275,-0.095 -0.0115,0.62881 -0.0359,0.62881 -0.51321,0 -0.62432,-0.82247 -0.83879,-0.82812 -1.14499,-0.0302 -0.13329,0.34735 -0.0244,0.768 0.2426,0.93743 0.35281,0.22387 0.29901,0.30893 -0.19813,0.31313 -0.37539,0.003 -0.58194,0.16851 -0.45902,0.3674 0.13567,0.21951 -0.33749,0.27864 -1.20391,0.15046 -2.55838,-0.3785 -3.52846,-0.39804 -3.72809,-0.0751 -0.24633,0.39858 -0.79042,0.36466 -2.22677,-0.1388 z m -0.18864,-33.1222 c 0,-0.20751 -0.26468,-0.37728 -0.5882,-0.37728 -0.32351,0 -0.48327,0.16977 -0.35502,0.37728 0.12825,0.20751 0.39294,0.37729 0.5882,0.37729 0.19526,0 0.35502,-0.16978 0.35502,-0.37729 z m 19.61891,20.93941 c -0.48583,-0.51714 -0.79843,-1.02514 -0.69468,-1.12889 0.10376,-0.10376 0.58614,0.23447 1.07196,0.7516 0.48582,0.51714 0.79842,1.02513 0.69467,1.12889 -0.10376,0.10376 -0.58614,-0.23447 -1.07195,-0.7516 z m -6.79117,0.0223 c 0,-0.3235 0.16978,-0.58819 0.37729,-0.58819 0.20751,0 0.37728,0.15976 0.37728,0.35501 0,0.19528 -0.16977,0.45996 -0.37728,0.58821 -0.20751,0.12824 -0.37729,-0.0315 -0.37729,-0.35503 z m -1.13186,-3.42969 c 0,-0.30474 0.25467,-0.55408 0.56593,-0.55408 0.31127,0 0.56593,0.15162 0.56593,0.33691 0,0.18531 -0.25466,0.43465 -0.56593,0.5541 -0.34472,0.13229 -0.56593,7.6e-4 -0.56593,-0.33693 z m 80.770774,0.0661 c 0.424411,-0.36296 2.609576,-0.5584 2.609576,-0.2334 0,0.20232 -0.622522,0.36785 -1.383392,0.36785 -0.760837,0 -1.312617,-0.0605 -1.226184,-0.13444 z m -78.043304,-0.69086 c 0.23319,-0.69958 1.04541,-0.81561 1.04541,-0.14934 0,0.32855 -0.26883,0.59737 -0.59738,0.59737 -0.32855,0 -0.53017,-0.20161 -0.44803,-0.44803 z m -3.85932,-2.19298 c 0,-0.20751 0.16978,-0.37728 0.37728,-0.37728 0.20751,0 0.37729,0.16977 0.37729,0.37728 0,0.20751 -0.16978,0.37729 -0.37729,0.37729 -0.2075,0 -0.37728,-0.16978 -0.37728,-0.37729 z m 82.814414,-0.37728 c 0.128233,-0.20752 0.402937,-0.3773 0.610452,-0.3773 0.207504,0 0.272353,0.16978 0.14412,0.3773 -0.128245,0.2075 -0.402948,0.37728 -0.610452,0.37728 -0.207504,0 -0.272364,-0.16978 -0.14412,-0.37728 z m -5.09337,-1.53142 c 0,-0.21976 0.169771,-0.29462 0.377286,-0.16638 0.207504,0.12825 0.377286,0.30805 0.377286,0.39956 0,0.0915 -0.169782,0.16636 -0.377286,0.16636 -0.207515,0 -0.377286,-0.17979 -0.377286,-0.39954 z m 1.131857,-1.14189 c 0,-0.28669 -0.469273,-0.34965 -1.414827,-0.18981 -1.25037,0.21136 -1.338082,0.1785 -0.754571,-0.28257 0.809241,-0.63947 0.860925,-1.05779 0.09436,-0.76363 -0.355473,0.13641 -0.56593,-0.004 -0.56593,-0.37728 0,-0.37539 -0.210149,-0.51382 -0.570193,-0.37564 -0.408939,0.15692 -0.503867,0.046 -0.335671,-0.39238 0.128999,-0.33617 0.640258,-0.71302 1.136122,-0.83749 0.495875,-0.12446 0.901612,-0.37765 0.901612,-0.56267 0,-0.185 0.173017,-0.33639 0.384447,-0.33639 0.221728,0 0.284293,0.3993 0.14775,0.94321 -0.130202,0.51877 -0.121302,0.94323 0.01957,0.94323 0.439051,0 1.334167,-1.05296 1.340235,-1.57653 0.0033,-0.33741 0.09535,-0.36456 0.28297,-0.0839 0.322278,0.48195 1.597698,0.55261 1.597698,0.0884 0,-0.17292 -0.212227,-0.317 -0.471613,-0.32017 -0.313115,-0.004 -0.281418,-0.12619 0.09436,-0.3641 0.436864,-0.27658 0.62683,-0.13204 0.832869,0.63371 0.337519,1.25446 0.05707,1.71639 -0.864599,1.42388 -0.879635,-0.27919 -0.927022,0.10234 -0.123029,0.9907 0.556088,0.61448 0.514846,0.70667 -0.565928,1.26559 -0.768842,0.39756 -1.165743,0.45676 -1.165743,0.17385 z m -52.0052,-8.93959 c -0.764554,-0.25484 -0.472181,-1.21529 0.505563,-1.66079 0.518771,-0.23638 0.943225,-0.52984 0.943225,-0.65217 0,-0.12232 0.402828,-0.22239 0.895171,-0.22239 0.56114,0 0.827655,0.17597 0.714215,0.4716 -0.0995,0.25938 0.03324,0.47161 0.295151,0.47161 0.323163,0 0.268219,0.22975 -0.171018,0.71509 -0.634801,0.70144 -2.317707,1.16526 -3.182307,0.87705 z m -10.295221,-2.59713 c -0.46953,-0.56917 -0.43865,-0.58552 0.3311,-0.17537 0.87793,0.46781 1.0941,0.80307 0.51779,0.80307 -0.18209,0 -0.5641,-0.28247 -0.84889,-0.6277 z m 15.328225,-0.50415 c 0.128255,-0.20752 0.392943,-0.3773 0.588201,-0.3773 0.195258,0 0.355014,0.16978 0.355014,0.3773 0,0.2075 -0.264688,0.37728 -0.58819,0.37728 -0.323514,0 -0.483269,-0.16978 -0.355025,-0.37728 z m -21.315705,-5.65872 c -0.65367,-0.40396 -0.29804,-0.87377 0.52549,-0.69419 0.34863,0.076 0.47103,0.31041 0.30253,0.57936 -0.1808,0.2886 -0.47979,0.33006 -0.82802,0.11483 z m -14.85664,-2.56529 c -0.10235,-0.16554 -0.0346,-0.54612 0.15067,-0.84575 0.25449,-0.41177 0.443,-0.43842 0.77226,-0.10923 0.23957,0.23958 0.32151,0.62015 0.18208,0.84574 -0.29793,0.48206 -0.84138,0.53576 -1.10501,0.10923 z m -3.91435,-1.13984 c -0.4669,-0.0664 -0.8489,-0.27877 -0.8489,-0.47185 0,-0.19308 -0.33956,-0.35105 -0.75457,-0.35105 -0.41502,0 -0.75457,-0.18601 -0.75457,-0.41336 0,-0.22736 -0.35112,-0.90647 -0.78027,-1.50915 -0.42914,-0.60268 -0.63302,-1.09578 -0.45304,-1.09578 0.17997,0 0.25784,-0.59422 0.17304,-1.3205 -0.0943,-0.80826 0.008,-1.32051 0.26441,-1.32051 0.23021,0 0.41857,0.47538 0.41857,1.0564 0,1.00886 0.57957,1.9619 1.19308,1.9619 0.15818,0 0.27621,-0.95291 0.2623,-2.11759 -0.0191,-1.59809 0.17229,-2.38482 0.78011,-3.20694 1.05514,-1.42715 0.46686,-1.39983 -0.91499,0.0426 -1.31738,1.37506 -1.49386,1.39632 -1.56355,0.18838 -0.03,-0.51862 0.0894,-0.94295 0.26527,-0.94295 0.17581,0 0.59254,-0.57506 0.92606,-1.2779 0.43539,-0.91749 0.93249,-1.34311 1.76266,-1.50914 2.01065,-0.40213 3.96798,-0.25518 4.45751,0.33468 0.25832,0.31126 0.78845,0.56593 1.17805,0.56593 0.38961,0 0.70837,0.21383 0.70837,0.47517 0,0.26134 0.35818,0.69885 0.79595,0.97225 0.60974,0.38079 0.74631,0.74513 0.58381,1.5576 -0.15262,0.76308 -0.005,1.24757 0.52457,1.72725 0.70907,0.6417 0.73669,0.63622 0.73669,-0.14636 0,-0.56152 0.23343,-0.81305 0.75456,-0.81305 0.55336,0 0.75458,0.25153 0.75458,0.94322 0,0.51876 -0.15922,0.94321 -0.35384,0.94321 -0.45585,0 -0.36181,1.61984 0.11299,1.94591 0.40238,0.27636 -0.40127,2.59064 -1.05823,3.04737 -0.62621,0.43536 -2.4006,0.3351 -2.70205,-0.15267 -0.18171,-0.29399 -0.0696,-0.36339 0.33581,-0.20785 0.39899,0.15311 0.54523,0.0684 0.42459,-0.24597 -0.10124,-0.26372 0.247,-0.67589 0.77379,-0.91591 0.5268,-0.24002 0.9552,-0.65226 0.95203,-0.9161 -0.003,-0.29553 -0.1122,-0.33486 -0.28298,-0.10246 -0.3668,0.49926 -1.85387,1.3205 -2.39112,1.3205 -0.24739,0 -0.35325,-0.38256 -0.25219,-0.91131 l 0.17422,-0.91132 -1.13176,0.81699 c -0.62245,0.44935 -1.52224,1.19901 -1.9995,1.66591 -0.47728,0.46688 -1.116,0.84889 -1.41941,0.84889 -0.3034,0 -0.60822,0.12745 -0.6774,0.28321 -0.0692,0.15577 -0.50776,0.22885 -0.97465,0.1624 z m 5.18769,-8.58872 c 0,-0.32855 -0.20161,-0.53017 -0.44803,-0.44803 -0.69958,0.2332 -0.8156,1.04541 -0.14933,1.04541 0.32854,0 0.59736,-0.26883 0.59736,-0.59738 z m -3.48204,-0.46374 c 0.0821,-0.24642 -0.11947,-0.44803 -0.44803,-0.44803 -0.32855,0 -0.59737,0.26882 -0.59737,0.59736 0,0.66626 0.81221,0.55023 1.0454,-0.14933 z m 60.829607,8.98414 c 0,-0.20752 0.169783,-0.37729 0.377286,-0.37729 0.207504,0 0.377287,0.16977 0.377287,0.37729 0,0.2075 -0.169783,0.37728 -0.377287,0.37728 -0.207503,0 -0.377286,-0.16978 -0.377286,-0.37728 z m -3.772869,-0.96548 c 0,-0.32352 0.172537,-0.48156 0.383442,-0.35123 0.210904,0.13035 0.285758,0.39504 0.166381,0.5882 -0.323414,0.52331 -0.549823,0.42574 -0.549823,-0.23697 z m 1.231127,-1.02872 c -1.399356,-0.9573 -1.554126,-1.40138 -0.488397,-1.40138 0.50518,0 0.673268,0.18099 0.525561,0.56593 -0.218448,0.56925 -0.127861,0.59137 2.97513,0.72728 1.627011,0.0712 1.397771,0.77271 -0.281908,0.86274 -1.039237,0.0558 -1.889415,-0.17923 -2.730386,-0.75457 z m 6.408928,0.57247 c -0.953252,-0.15711 -1.112767,-0.90789 -0.330762,-1.55688 0.69122,-0.57368 1.745589,-0.13095 1.745589,0.73298 0,0.83515 -0.297042,1.00813 -1.414827,0.8239 z m -51.782583,-1.9739 c 0,-0.20751 0.17979,-0.3773 0.39956,-0.3773 0.21974,0 0.29462,0.16979 0.16637,0.3773 -0.12825,0.20749 -0.30804,0.37728 -0.39955,0.37728 -0.0915,0 -0.16638,-0.16979 -0.16638,-0.37728 z m 46.028968,0 c 0,-0.20751 0.179809,-0.3773 0.399537,-0.3773 0.219771,0 0.294625,0.16979 0.166392,0.3773 -0.128244,0.20749 -0.308063,0.37728 -0.399547,0.37728 -0.09152,0 -0.166382,-0.16979 -0.166382,-0.37728 z m -45.396888,-1.00283 c -0.34002,-0.34004 0.47201,-1.2609 1.1119,-1.2609 0.28586,0 0.51974,0.2647 0.51974,0.5882 0,0.32351 -0.16978,0.48326 -0.37729,0.35502 -0.20751,-0.12825 -0.3773,-0.0534 -0.3773,0.16637 0,0.44637 -0.49637,0.53199 -0.87705,0.15131 z m 42.208809,-2.72765 c 0.197138,-0.18418 0.782869,-0.44593 1.301639,-0.58166 l 0.943215,-0.24679 -0.943215,0.5683 c -1.051198,0.63336 -1.877945,0.79859 -1.301639,0.26015 z m 1.867568,-3.06069 c 0.128244,-0.20751 0.308052,-0.37729 0.399547,-0.37729 0.09152,0 0.166381,0.16978 0.166381,0.37729 0,0.20751 -0.179808,0.37729 -0.399547,0.37729 -0.219761,0 -0.294614,-0.16978 -0.166381,-0.37729 z m -0.565929,-1.13186 c 0,-0.20751 0.179819,-0.37729 0.399547,-0.37729 0.219773,0 0.294626,0.16978 0.166382,0.37729 -0.128233,0.20751 -0.308052,0.37728 -0.399548,0.37728 -0.09152,0 -0.166381,-0.16977 -0.166381,-0.37728 z m -56.592998,-5.96812 c 0,-0.45598 0.71579,-0.98758 0.97744,-0.72595 0.0949,0.095 -0.0862,0.38743 -0.40238,0.64992 -0.35859,0.29758 -0.57506,0.3262 -0.57506,0.0759 z m 1.13186,-1.57761 c 0,-0.20751 0.25467,-0.37729 0.56594,-0.37729 0.31124,0 0.56593,0.16978 0.56593,0.37729 0,0.2075 -0.25469,0.37729 -0.56593,0.37729 -0.31127,0 -0.56594,-0.16979 -0.56594,-0.37729 z"
     id="_doge"
     inkscape:connector-curvature="0" />
  <path
     style="fill:#000000;fill-opacity:1;fill-rule:evenodd"
     inkscape:connector-curvature="0"
     clip-rule="evenodd"
     d="m -89.953856,492.28285 c -20.794944,0 -37.717154,16.92221 -37.717154,37.71715 0,20.79495 16.92221,37.71716 37.717154,37.71716 20.794946,0 37.717156,-16.92221 37.717156,-37.71716 0,-20.79494 -16.92221,-37.71715 -37.717156,-37.71715 z m 0,64.65798 c -14.880764,0 -26.940824,-12.06006 -26.940824,-26.94083 0,-14.88076 12.06006,-26.94082 26.940824,-26.94082 14.880764,0 26.940826,12.06006 26.940826,26.94082 0,14.88077 -12.060062,26.94083 -26.940826,26.94083 z m 0,-75.43431 c 2.974604,0 5.388165,-2.41356 5.388165,-5.38816 v -10.77633 c 0,-2.97461 -2.413561,-5.38817 -5.388165,-5.38817 -2.974603,0 -5.388164,2.41356 -5.388164,5.38817 v 10.77633 c 0,2.9746 2.413561,5.38816 5.388164,5.38816 z m 0,96.98697 c -2.974603,0 -5.388164,2.41356 -5.388164,5.38816 v 10.77633 c 0,2.9746 2.413561,5.38816 5.388164,5.38816 2.974604,0 5.388165,-2.41356 5.388165,-5.38816 v -10.77633 c 0,-2.9746 -2.413561,-5.38816 -5.388165,-5.38816 z m 41.905776,-82.7868 7.6192,-7.6192 c 2.10475,-2.10475 2.10475,-5.51445 0,-7.6192 -2.10475,-2.10475 -5.51445,-2.10475 -7.6192,0 l -7.6192,7.6192 c -2.10475,2.10475 -2.10475,5.51445 0,7.6192 2.10441,2.10476 5.51445,2.10476 7.6192,0 z m -83.81155,68.58696 -7.6192,7.6192 c -2.10476,2.10442 -2.10476,5.51412 0,7.61887 2.10475,2.10475 5.51445,2.10475 7.6192,0 l 7.6192,-7.61887 c 2.10475,-2.11182 2.10475,-5.51478 0,-7.6192 -2.10442,-2.10509 -5.51445,-2.11216 -7.6192,0 z M -138.44734,530 c 0,-2.9746 -2.41356,-5.38816 -5.38816,-5.38816 h -10.77633 c -2.97461,0 -5.38817,2.41356 -5.38817,5.38816 0,2.97461 2.41356,5.38817 5.38817,5.38817 h 10.77633 c 2.9746,0 5.38816,-2.41356 5.38816,-5.38817 z m 113.15146,-5.38816 h -10.77633 c -2.9746,0 -5.38816,2.41356 -5.38816,5.38816 0,2.97461 2.41356,5.38817 5.38816,5.38817 h 10.77633 c 2.9746,0 5.38816,-2.41356 5.38816,-5.38817 0,-2.9746 -2.41356,-5.38816 -5.38816,-5.38816 z M -131.8667,495.70669 c 2.10508,2.10476 5.51478,2.10476 7.6192,0 2.10509,-2.10475 2.10509,-5.51445 0,-7.6192 l -7.6192,-7.6192 c -2.10476,-2.10475 -5.51412,-2.10475 -7.61921,0 -2.10475,2.10475 -2.10475,5.51445 0,7.6192 l 7.61921,7.6192 z m 83.82569,68.57955 c -2.11182,-2.10475 -5.51478,-2.10475 -7.6192,0 -2.10509,2.10475 -2.11182,5.51445 0,7.6192 l 7.6192,7.61921 c 2.10442,2.10475 5.51412,2.10475 7.61887,0 2.10475,-2.10476 2.10475,-5.51412 0,-7.61921 l -7.61887,-7.6192 z"
     id="_sunny" />
  <path
     style="fill:#000000;fill-opacity:1;fill-rule:evenodd"
     inkscape:connector-curvature="0"
     clip-rule="evenodd"
     d="m -50.624999,504.01231 c -1.452506,0 -2.888049,0.10152 -4.318128,0.30455 C -63.111796,493.297 -76.00328,486.6872 -90,486.6872 c -13.99671,0 -26.88219,6.6098 -35.05687,17.62966 -1.43008,-0.20303 -2.86563,-0.30455 -4.31813,-0.30455 -16.88477,0 -30.625,13.60294 -30.625,30.31897 0,16.71604 13.74023,30.31897 30.625,30.31897 3.74281,0 7.40577,-0.67677 10.85793,-1.98509 7.91794,6.83531 17.98973,10.64764 28.51707,10.64764 10.538826,0 20.598864,-3.81233 28.517067,-10.64764 3.452155,1.30832 7.115123,1.98509 10.857934,1.98509 16.884767,0 30.624999,-13.60293 30.624999,-30.31897 0,-16.71603 -13.740232,-30.31897 -30.624999,-30.31897 z m 0,51.97538 c -4.682614,0 -9.000466,-1.48888 -12.561177,-3.97044 -6.41976,7.65852 -15.979133,12.633 -26.813824,12.633 -10.83495,0 -20.39407,-4.97448 -26.81382,-12.633 -3.5547,2.48156 -7.87857,3.97044 -12.56118,3.97044 -12.08266,0 -21.875,-9.69449 -21.875,-21.65641 0,-11.96191 9.79234,-21.6564 21.875,-21.6564 2.9564,0 5.75914,0.59772 8.32288,1.64669 5.80481,-11.21151 17.45981,-18.97182 31.05212,-18.97182 13.592309,0 25.247575,7.76031 31.04637,18.97182 2.569486,-1.04897 5.377966,-1.64669 8.328631,-1.64669 12.082652,0 21.874997,9.69449 21.874997,21.6564 0,11.96192 -9.792345,21.65641 -21.874997,21.65641 z"
     id="_cloud" />
  <path
     style="fill:#000000;fill-opacity:1;fill-rule:evenodd"
     inkscape:connector-curvature="0"
     clip-rule="evenodd"
     d="m -51.538411,487.2649 c -1.418805,0 -2.821051,0.1002 -4.217954,0.30048 -7.979177,-10.87286 -20.571607,-17.39452 -34.243631,-17.39452 -13.672024,0 -26.258584,6.52166 -34.243634,17.39452 -1.39692,-0.20031 -2.79916,-0.30048 -4.21796,-0.30048 -16.49307,0 -29.91457,13.42149 -29.91457,29.91457 0,16.49307 13.4215,29.91458 29.91457,29.91458 3.65598,0 7.23399,-0.66774 10.60605,-1.95862 7.73425,6.74414 17.57241,10.50563 27.855544,10.50563 10.29435,0 20.121019,-3.76149 27.855537,-10.50563 3.372065,1.29088 6.950061,1.95862 10.606049,1.95862 16.493076,0 29.914566,-13.42151 29.914566,-29.91458 0,-16.49308 -13.42149,-29.91457 -29.914566,-29.91457 z m 0,51.28211 c -4.57399,0 -8.791677,-1.46901 -12.26978,-3.91747 -6.270841,7.55664 -15.608459,12.46451 -26.191806,12.46451 -10.583623,0 -19.920973,-4.90787 -26.191813,-12.46451 -3.47222,2.44847 -7.6958,3.91747 -12.26978,3.91747 -11.80237,0 -21.36755,-9.56519 -21.36755,-21.36755 0,-11.80237 9.56518,-21.36754 21.36755,-21.36754 2.88783,0 5.62554,0.58975 8.12981,1.62473 5.67015,-11.06198 17.05478,-18.71877 30.331784,-18.71877 13.276992,0 24.661889,7.65679 30.326159,18.71877 2.509886,-1.03498 5.253213,-1.62473 8.135427,-1.62473 11.802365,0 21.367547,9.56517 21.367547,21.36754 0,11.80236 -9.565182,21.36755 -21.367547,21.36755 z m -47.008608,42.7351 c 0,4.72437 3.822658,8.54702 8.547022,8.54702 4.724365,0 8.547018,-3.82265 8.547018,-8.54702 0,-4.72437 -8.547018,-17.09403 -8.547018,-17.09403 0,0 -8.547022,12.36967 -8.547022,17.09403 z"
     id="_light_rain" />
  <path
     style="fill:#000000;fill-opacity:1;fill-rule:evenodd"
     inkscape:connector-curvature="0"
     clip-rule="evenodd"
     d="m -51.115448,478.15392 c -1.434408,0 -2.852074,0.10127 -4.26434,0.30379 -8.066924,-10.99245 -20.797836,-17.58581 -34.620215,-17.58581 -13.822377,0 -26.547347,6.59336 -34.620217,17.58581 -1.41226,-0.20252 -2.82993,-0.30379 -4.26434,-0.30379 -16.67445,0 -30.24354,13.56909 -30.24354,30.24355 0,16.67445 13.56909,30.24354 30.24354,30.24354 3.6962,0 7.31354,-0.67508 10.72269,-1.98014 7.8193,6.8183 17.76565,10.62115 28.161867,10.62115 10.407559,0 20.342293,-3.80285 28.161869,-10.62115 3.409149,1.30506 7.026493,1.98014 10.722686,1.98014 16.674453,0 30.243543,-13.56909 30.243543,-30.24354 0,-16.67446 -13.56909,-30.24355 -30.243543,-30.24355 z m 0,51.84608 c -4.624292,0 -8.888361,-1.48518 -12.404713,-3.96056 -6.339803,7.63974 -15.780108,12.60157 -26.479842,12.60157 -10.700007,0 -20.140037,-4.96183 -26.479837,-12.60157 -3.51042,2.47538 -7.78043,3.96056 -12.40472,3.96056 -11.93216,0 -21.60253,-9.67038 -21.60253,-21.60253 0,-11.93216 9.67037,-21.60253 21.60253,-21.60253 2.91958,0 5.68741,0.59623 8.21923,1.6426 5.7325,-11.18363 17.24232,-18.92463 30.665327,-18.92463 13.423003,0 24.933101,7.741 30.659662,18.92463 2.537487,-1.04637 5.310982,-1.6426 8.224893,-1.6426 11.932158,0 21.60253,9.67037 21.60253,21.60253 0,11.93215 -9.670372,21.60253 -21.60253,21.60253 z m -47.255535,60.48708 c 0,4.77632 3.864692,8.64101 8.641012,8.64101 4.776319,0 8.641012,-3.86469 8.641012,-8.64101 0,-4.77632 -8.641012,-17.28202 -8.641012,-17.28202 0,0 -8.641012,12.5057 -8.641012,17.28202 z m 34.294017,-8.64101 c 0,4.77632 3.864692,8.64101 8.641012,8.64101 4.776319,0 8.641012,-3.86469 8.641012,-8.64101 0,-4.77632 -8.641012,-17.28202 -8.641012,-17.28202 0,0 -8.641012,12.5057 -8.641012,17.28202 z m -69.128094,-17.28202 c 0,4.77632 3.86469,8.64101 8.64101,8.64101 4.77632,0 8.64101,-3.86469 8.64101,-8.64101 0,-4.77632 -8.64101,-17.28203 -8.64101,-17.28203 0,0 -8.64101,12.50571 -8.64101,17.28203 z"
     id="_heavy_rain" />
  <path
     style="fill:#000000;fill-opacity:1;fill-rule:evenodd"
     inkscape:connector-curvature="0"
     clip-rule="evenodd"
     d="m -71.268491,580.19387 -4.813786,-2.77487 c 0.144949,-0.83546 0.256201,-1.68777 0.256201,-2.57377 0,-0.88574 -0.111252,-1.73831 -0.267433,-2.57404 l 4.825018,-2.78023 c 2.25098,-1.31497 3.019581,-4.20645 1.72708,-6.4462 -1.304001,-2.26755 -4.189866,-3.04204 -6.45181,-1.7383 l -4.864063,2.80804 c -1.304002,-1.10878 -2.774613,-1.97793 -4.412637,-2.56842 v -5.58828 c 0,-2.61308 -2.12288,-4.73034 -4.730347,-4.73034 -2.607468,0 -4.724463,2.11726 -4.724463,4.73034 v 5.58266 c -1.638292,0.58514 -3.114519,1.46526 -4.418252,2.57404 l -4.852827,-2.80804 c -2.26757,-1.30374 -5.15931,-0.53487 -6.46304,1.73269 -1.30374,2.25098 -0.51829,5.14808 1.7383,6.45208 l 4.80283,2.77461 c -0.15618,0.84134 -0.25647,1.69392 -0.25647,2.57966 0,0.886 0.10029,1.73831 0.25647,2.57376 l -4.80256,2.77461 c -2.2622,1.30374 -3.04204,4.21208 -1.73831,6.46867 1.30373,2.25659 4.19548,3.02519 6.45181,1.72173 l 4.858448,-2.79146 c 1.303465,1.10316 2.780227,1.97231 4.423868,2.55719 v 5.5995 c 0,2.6072 2.116996,4.71323 4.724463,4.71323 2.607467,0 4.730346,-2.10603 4.730346,-4.71323 V 588.15 c 1.638024,-0.58514 3.125753,-1.4543 4.418254,-2.57404 l 4.858447,2.80804 c 2.261944,1.30373 5.147808,0.53486 6.451811,-1.72173 1.303466,-2.25632 0.534597,-5.14808 -1.727348,-6.4684 z m -18.73151,-0.61856 c -2.607467,0 -4.730346,-2.12288 -4.730346,-4.73035 0,-2.60747 2.122879,-4.71912 4.730346,-4.71912 2.607467,0 4.724731,2.11165 4.724731,4.71912 0,2.60747 -2.117263,4.73035 -4.724731,4.73035 z m 38.510286,-100.92236 c -1.420601,0 -2.824622,0.10029 -4.223294,0.30087 -7.989281,-10.88665 -20.597656,-17.41655 -34.286992,-17.41655 -13.689339,0 -26.291829,6.5299 -34.286989,17.41655 -1.39868,-0.20058 -2.8027,-0.30087 -4.22329,-0.30087 -16.51396,0 -29.95245,13.43849 -29.95245,29.95245 0,16.51395 13.43849,29.95244 29.95245,29.95244 3.66061,0 7.24314,-0.66858 10.61947,-1.96108 7.74404,6.75267 17.59466,10.51893 27.89081,10.51893 10.307384,0 20.146496,-3.76626 27.890808,-10.51893 3.376336,1.2925 6.958862,1.96108 10.619478,1.96108 16.51396,0 29.952445,-13.43849 29.952445,-29.95244 0,-16.51396 -13.438485,-29.95245 -29.952445,-29.95245 z m 0,51.34705 c -4.579782,0 -8.80281,-1.47087 -12.285316,-3.92244 -6.278781,7.56621 -15.628224,12.48028 -26.22497,12.48028 -10.597009,0 -19.946189,-4.91407 -26.224969,-12.48028 -3.47662,2.45157 -7.70553,3.92244 -12.28531,3.92244 -11.81731,0 -21.39461,-9.57729 -21.39461,-21.3946 0,-11.81731 9.5773,-21.39461 21.39461,-21.39461 2.89147,0 5.63266,0.5905 8.14011,1.6268 5.67732,-11.07599 17.07637,-18.74248 30.370169,-18.74248 13.293804,0 24.693116,7.66649 30.364558,18.74248 2.513064,-1.0363 5.259864,-1.6268 8.145728,-1.6268 11.81731,0 21.394604,9.5773 21.394604,21.39461 0,11.81731 -9.577294,21.3946 -21.394604,21.3946 z"
     id="_light_snow" />
  <path
     style="fill:#000000;fill-opacity:1;fill-rule:evenodd"
     inkscape:connector-curvature="0"
     clip-rule="evenodd"
     d="m -71.461558,579.67652 -4.764169,-2.74629 c 0.143454,-0.82684 0.253559,-1.67036 0.253559,-2.54723 0,-0.87661 -0.110105,-1.7204 -0.264676,-2.54751 l 4.775286,-2.75157 c 2.227778,-1.30141 2.988457,-4.1631 1.709278,-6.37976 -1.290561,-2.24418 -4.14668,-3.01069 -6.38531,-1.72039 l -4.813928,2.7791 c -1.29056,-1.09735 -2.746014,-1.95755 -4.367155,-2.54195 v -5.53067 c 0,-2.58615 -2.100998,-4.68159 -4.68159,-4.68159 -2.580591,0 -4.675767,2.09544 -4.675767,4.68159 v 5.52511 c -1.621406,0.57911 -3.082417,1.45016 -4.372713,2.54751 l -4.802807,-2.7791 c -2.24419,-1.2903 -5.10614,-0.52935 -6.39643,1.71484 -1.2903,2.22778 -0.51294,5.09501 1.72039,6.38558 l 4.75332,2.746 c -0.15457,0.83268 -0.25382,1.67647 -0.25382,2.55307 0,0.87687 0.0992,1.7204 0.25382,2.54724 l -4.75305,2.74602 c -2.2389,1.29029 -3.01069,4.16865 -1.7204,6.40198 1.2903,2.23334 4.15224,2.99402 6.38531,1.70399 l 4.808373,-2.76269 c 1.290032,1.09179 2.751573,1.95199 4.378272,2.53083 v 5.54179 c 0,2.58032 2.095176,4.66465 4.675767,4.66465 2.580591,0 4.68159,-2.08433 4.68159,-4.66465 v -5.54179 c 1.621141,-0.57911 3.093534,-1.43931 4.372713,-2.5475 l 4.80837,2.77909 c 2.23863,1.2903 5.094749,0.52935 6.385309,-1.70398 1.290032,-2.23307 0.529088,-5.09502 -1.709542,-6.40172 z m -18.53844,-0.6122 c -2.580591,0 -4.68159,-2.101 -4.68159,-4.68159 0,-2.58059 2.100999,-4.67047 4.68159,-4.67047 2.580591,0 4.676031,2.08988 4.676031,4.67047 0,2.58059 -2.09544,4.68159 -4.676031,4.68159 z m 57.743314,-11.94351 -3.19808,-0.84908 c -0.07702,-1.0145 -0.319728,-1.97951 -0.766501,-2.90587 l 2.321473,-2.32148 c 1.091788,-1.09179 1.08623,-2.85638 0,-3.9315 -1.080672,-1.08623 -2.834151,-1.09178 -3.92594,0 l -2.326767,2.31592 c -0.915514,-0.4301 -1.891375,-0.6781 -2.900585,-0.76094 l -0.849346,-3.19253 c -0.396749,-1.47769 -1.918901,-2.36567 -3.407439,-1.96866 -1.483244,0.40258 -2.349,1.92446 -1.963102,3.4077 l 0.849345,3.1486 c -0.419247,0.28691 -0.81626,0.60663 -1.191042,0.97056 -0.363929,0.37505 -0.672806,0.77179 -0.959715,1.18019 l -3.148586,-0.84935 c -1.483245,-0.39674 -3.016248,0.49653 -3.413263,1.96866 -0.396749,1.48881 0.496533,3.00514 1.963102,3.40771 l 3.176113,0.85464 c 0.0884,0.99809 0.341961,1.97395 0.78847,2.90059 l -2.332325,2.33232 c -1.080673,1.08623 -1.075114,2.8397 0.01112,3.92038 1.080672,1.08067 2.834151,1.09179 3.915088,0.0111 l 2.337619,-2.33788 c 0.915515,0.45181 1.897198,0.70563 2.911701,0.78265 l 0.837965,3.18167 c 0.408129,1.48325 1.9189,2.36567 3.407968,1.96866 1.477686,-0.39701 2.370703,-1.91863 1.973954,-3.41882 l -0.849345,-3.14859 c 0.397014,-0.28108 0.805144,-0.59551 1.18019,-0.95945 0.36393,-0.36949 0.672806,-0.77762 0.959186,-1.18548 l 3.154144,0.84934 c 1.483245,0.39702 3.010691,-0.49071 3.402147,-1.9631 0.397014,-1.47822 -0.479593,-2.99984 -1.957544,-3.40797 z m -9.489694,1.77016 c -1.091789,1.09179 -2.850826,1.08623 -3.937057,0 -1.075114,-1.07512 -1.08623,-2.83971 0,-3.9315 1.086231,-1.08068 2.850826,-1.08068 3.937057,0 1.075378,1.08623 1.075378,2.85612 0,3.9315 z m -84.530652,-15.99649 -3.14303,0.84379 c -0.2922,-0.39702 -0.59552,-0.79959 -0.96501,-1.17463 -0.37477,-0.36393 -0.77179,-0.67811 -1.18548,-0.95946 l 0.84379,-3.1597 c 0.39701,-1.48325 -0.48542,-3.01069 -1.95199,-3.40214 -1.4888,-0.39702 -3.01069,0.48541 -3.4077,1.96309 l -0.8602,3.19253 c -1.00894,0.0826 -1.97395,0.33085 -2.89503,0.7665 l -2.33232,-2.32147 c -1.09179,-1.09179 -2.84527,-1.08623 -3.92621,0 -1.08623,1.08622 -1.08623,2.84526 0,3.93149 l 2.32148,2.32147 c -0.43566,0.92638 -0.68922,1.9025 -0.76651,2.90588 l -3.18722,0.84909 c -1.4888,0.40813 -2.37124,1.9189 -1.97396,3.4077 0.40257,1.47768 1.92446,2.349 3.41326,1.9631 l 3.14303,-0.8549 c 0.28109,0.42454 0.59552,0.82182 0.97613,1.1913 0.36393,0.36393 0.76094,0.68922 1.17463,0.95946 l -0.84379,3.14858 c -0.39701,1.4888 0.48542,3.02181 1.96284,3.41882 1.48907,0.39702 2.99984,-0.48515 3.39686,-1.96865 l 0.86019,-3.17612 c 1.00894,-0.0826 1.98507,-0.3364 2.91144,-0.77762 l 2.32676,2.32704 c 1.08094,1.09152 2.83442,1.06955 3.9262,-0.0111 1.07512,-1.07512 1.09179,-2.83415 0,-3.92038 l -2.33231,-2.33233 c 0.44677,-0.91578 0.71144,-1.90249 0.77761,-2.9117 l 3.19252,-0.84379 c 1.47213,-0.40256 2.35456,-1.9189 1.95755,-3.4077 -0.39728,-1.4716 -1.91917,-2.35403 -3.41353,-1.96813 z m -8.0398,7.53215 c -1.08623,1.08623 -2.84526,1.08623 -3.93706,0 -1.07511,-1.08067 -1.07511,-2.85083 0,-3.92595 1.0918,-1.08066 2.85083,-1.08066 3.93706,0 1.08623,1.08068 1.07538,2.84528 0,3.92595 z m 112.0739,-51.60071 c 0,-16.34375 -13.299971,-29.64372 -29.643717,-29.64372 -1.405959,0 -2.795509,0.0992 -4.179764,0.29776 -7.906932,-10.77443 -20.38535,-17.23703 -33.933587,-17.23703 -13.548242,0 -26.020832,6.4626 -33.933592,17.23703 -1.38426,-0.19851 -2.7738,-0.29776 -4.17976,-0.29776 -16.34375,0 -29.64372,13.29997 -29.64372,29.64372 0,16.34374 13.29997,29.64372 29.64372,29.64372 3.62288,0 7.16848,-0.6617 10.51002,-1.94087 7.66423,6.68306 17.4133,10.41049 27.603332,10.41049 10.201144,0 19.93884,-3.72743 27.603329,-10.41049 3.341536,1.27917 6.887137,1.94087 10.510022,1.94087 16.343746,0 29.643717,-13.29998 29.643717,-29.64372 z m -41.802405,17.29207 c -6.214065,7.48822 -15.467139,12.35165 -25.954663,12.35165 -10.487792,0 -19.740602,-4.86343 -25.954672,-12.35165 -3.44079,2.42629 -7.62611,3.88201 -12.15868,3.88201 -11.6955,0 -21.17408,-9.47858 -21.17408,-21.17408 0,-11.69551 9.47858,-21.17409 21.17408,-21.17409 2.86167,0 5.5746,0.58441 8.05621,1.61002 5.6188,-10.96181 16.90036,-18.54928 30.057142,-18.54928 13.156782,0 24.438598,7.58747 30.051583,18.54928 2.487161,-1.02561 5.205649,-1.61002 8.061768,-1.61002 11.695505,0 21.174084,9.47858 21.174084,21.17409 0,11.6955 -9.478579,21.17408 -21.174084,21.17408 -4.532578,0 -8.712077,-1.45572 -12.158688,-3.88201 z"
     id="_heavy_snow" />
  <path
     style="fill:#000000;fill-opacity:1"
     inkscape:connector-curvature="0"
     d="m -37,503.5 c -8.778125,0 -15.9,7.12187 -15.9,15.9 0,1.87024 0.386569,3.62984 0.973212,5.3 H -153.6 c -2.92593,0 -5.3,2.37407 -5.3,5.3 0,2.92593 2.37407,5.3 5.3,5.3 H -37 c 8.778125,0 15.9,-7.12188 15.9,-15.9 0,-8.77813 -7.121875,-15.9 -15.9,-15.9 z m -116.6,10.6 H -90 c 8.77812,0 15.9,-7.12187 15.9,-15.9 0,-8.77812 -7.12188,-15.9 -15.9,-15.9 -8.77812,0 -15.9,7.12188 -15.9,15.9 0,1.87024 0.38657,3.62984 0.97321,5.3 H -153.6 c -2.92593,0 -5.3,2.37407 -5.3,5.3 0,2.92593 2.37407,5.3 5.3,5.3 z m 84.8,31.8 c -0.31071,0 -0.60751,0.0689 -0.92452,0.0964 -0.20703,-0.0136 -0.37961,-0.0964 -0.58664,-0.0964 h -81.77039 c -3.76797,0 -6.81845,2.37407 -6.81845,5.3 0,2.92593 3.05048,5.3 6.81845,5.3 h 68.35476 c -0.58664,1.67016 -0.97321,3.43705 -0.97321,5.3 0,8.77813 7.12187,15.9 15.9,15.9 8.77812,0 15.9,-7.12187 15.9,-15.9 0,-8.77813 -7.12188,-15.9 -15.9,-15.9 z"
     id="_wind" />
  <path
     style="fill:#000000;fill-opacity:1"
     inkscape:connector-curvature="0"
     d="m -50.624999,481.875 c -1.4525,0 -2.888047,0.10254 -4.318125,0.30762 -8.168672,-11.1311 -21.060156,-17.80762 -35.056875,-17.80762 -13.996721,0 -26.882191,6.67652 -35.056881,17.80762 -1.43007,-0.20508 -2.86562,-0.30762 -4.31812,-0.30762 -16.88477,0 -30.625,13.74023 -30.625,30.625 0,16.88477 13.74023,30.625 30.625,30.625 3.74281,0 7.40578,-0.68359 10.85793,-2.00512 5.89012,5.1327 12.96531,8.55614 20.536249,9.98621 L -107.5,560.625 l 8.749999,8.75 -8.749999,26.25 26.250001,-26.25 -8.75,-8.75 3.007812,-9.02316 c 9.42211,-0.66664 18.354493,-4.25004 25.509258,-10.48196 3.452149,1.32153 7.115117,2.00512 10.85793,2.00512 16.884766,0 30.625,-13.74023 30.625,-30.625 0,-16.88477 -13.740234,-30.625 -30.625,-30.625 z m 0,52.5 c -4.682617,0 -9.000469,-1.50391 -12.561172,-4.01051 -5.178359,6.2434 -12.458359,10.56153 -20.74707,12.05969 l -6.066758,0.70082 c -10.834961,0 -20.394061,-5.02441 -26.813831,-12.76051 -3.55469,2.5066 -7.87855,4.01051 -12.56117,4.01051 -12.08266,0 -21.875,-9.79234 -21.875,-21.875 0,-12.08266 9.79234,-21.875 21.875,-21.875 2.95641,0 5.75914,0.60375 8.32289,1.66332 5.80481,-11.32469 17.45981,-19.16332 31.052111,-19.16332 13.592305,0 25.247578,7.83863 31.046367,19.16332 2.569492,-1.05957 5.377969,-1.66332 8.328633,-1.66332 12.082656,0 21.875,9.79234 21.875,21.875 0,12.08266 -9.792344,21.875 -21.875,21.875 z"
     id="_light_tstorm" />
  <path
     style="fill:#000000;fill-opacity:1"
     inkscape:connector-curvature="0"
     d="m -153,495 h 126 c 3.86444,0 7,-3.13556 7,-7 0,-3.86444 -3.13556,-7 -7,-7 h -126 c -3.86444,0 -7,3.13556 -7,7 0,3.86444 3.13556,7 7,7 z m 126,14 h -126 c -3.86444,0 -7,3.13556 -7,7 0,3.86444 3.13556,7 7,7 h 126 c 3.86444,0 7,-3.13556 7,-7 0,-3.86444 -3.13556,-7 -7,-7 z m 0,28 h -126 c -3.86444,0 -7,3.13556 -7,7 0,3.86444 3.13556,7 7,7 h 126 c 3.86444,0 7,-3.13556 7,-7 0,-3.86444 -3.13556,-7 -7,-7 z m 0,28 h -126 c -3.86444,0 -7,3.13556 -7,7 0,3.86444 3.13556,7 7,7 h 126 c 3.86444,0 7,-3.13556 7,-7 0,-3.86444 -3.13556,-7 -7,-7 z"
     id="_fog" />
  <path
     style="fill:#000000;fill-opacity:1"
     inkscape:connector-curvature="0"
     d="m -50.625,477.5 c -1.4525,0 -2.88805,0.1025 -4.31813,0.3076 C -63.1118,466.6765 -76.00328,460 -90,460 c -13.99672,0 -26.88219,6.6765 -35.05688,17.8076 -1.43007,-0.2051 -2.86562,-0.3076 -4.31812,-0.3076 -16.88477,0 -30.625,13.7402 -30.625,30.625 0,16.8848 13.74023,30.625 30.625,30.625 3.74281,0 7.40578,-0.6836 10.85793,-2.0051 7.91793,6.9043 17.98973,10.7551 28.51707,10.7551 10.53883,0 20.59887,-3.8508 28.51707,-10.7551 3.45215,1.3215 7.11512,2.0051 10.85793,2.0051 16.88477,0 30.625,-13.7402 30.625,-30.625 0,-16.8848 -13.74023,-30.625 -30.625,-30.625 z m 0,52.5 c -2.6548,0 -5.25246,-0.4785 -7.72461,-1.4241 l -4.92187,-1.8913 -3.96485,3.4636 C -73.59375,535.6965 -81.67711,538.75 -90,538.75 c -8.32289,0 -16.40625,-3.0535 -22.76367,-8.6018 l -3.96485,-3.4636 -4.92187,1.8913 c -2.46094,0.9456 -5.06981,1.4241 -7.72461,1.4241 -12.06543,0 -21.875,-9.8153 -21.875,-21.875 0,-12.0597 9.80957,-21.875 21.875,-21.875 1.03687,0 2.05078,0.074 3.07617,0.2166 l 5.18383,0.7519 3.10461,-4.2268 C -111.3623,473.9396 -101.15379,468.75 -90,468.75 c 11.15953,0 21.3623,5.1838 28.00465,14.236 l 3.11035,4.2325 5.19504,-0.7519 c 1.01418,-0.1425 2.02808,-0.2166 3.06496,-0.2166 12.06543,0 21.875,9.8153 21.875,21.875 0,12.0597 -9.80957,21.875 -21.875,21.875 z m -83.125,17.5 c -4.83656,0 -8.75,3.9134 -8.75,8.75 0,4.8366 3.91344,8.75 8.75,8.75 4.83656,0 8.75,-3.9134 8.75,-8.75 0,-4.8366 -3.91344,-8.75 -8.75,-8.75 z m 43.75,8.75 c -4.83656,0 -8.75,3.9134 -8.75,8.75 0,4.8366 3.91344,8.75 8.75,8.75 4.83656,0 8.75,-3.9134 8.75,-8.75 0,-4.8366 -3.91344,-8.75 -8.75,-8.75 z m 43.75,-8.75 c -4.83656,0 -8.75,3.9134 -8.75,8.75 0,4.8366 3.91344,8.75 8.75,8.75 4.83656,0 8.75,-3.9134 8.75,-8.75 0,-4.8366 -3.91344,-8.75 -8.75,-8.75 z m -17.5,35 c -4.83656,0 -8.75,3.9134 -8.75,8.75 0,4.8366 3.91344,8.75 8.75,8.75 4.83656,0 8.75,-3.9134 8.75,-8.75 0,-4.8366 -3.91344,-8.75 -8.75,-8.75 z m -52.5,0 c -4.83656,0 -8.75,3.9134 -8.75,8.75 0,4.8366 3.91344,8.75 8.75,8.75 4.83656,0 8.75,-3.9134 8.75,-8.75 0,-4.8366 -3.91344,-8.75 -8.75,-8.75 z"
     id="_hail" />
  <path
     style="fill:#000000;fill-opacity:1"
     inkscape:connector-curvature="0"
     d="m -103.125,477.5 c 2.41527,0 4.375,-1.9597 4.375,-4.375 v -8.75 c 0,-2.4153 -1.95973,-4.375 -4.375,-4.375 -2.41527,0 -4.375,1.9597 -4.375,4.375 v 8.75 c 0,2.4153 1.95973,4.375 4.375,4.375 z m 34.02602,11.53 6.18652,-6.1865 c 1.70871,-1.709 1.70871,-4.4775 0,-6.1865 -1.70899,-1.709 -4.47754,-1.709 -6.18652,0 l -6.18653,6.1865 c -1.70898,1.709 -1.70898,4.4776 0,6.1865 1.70871,1.709 4.47754,1.709 6.18653,0 z m -86.52602,32.22 h 8.75 c 2.41527,0 4.375,-1.9597 4.375,-4.375 0,-2.4153 -1.95973,-4.375 -4.375,-4.375 h -8.75 c -2.41527,0 -4.375,1.9597 -4.375,4.375 0,2.4153 1.95973,4.375 4.375,4.375 z m 91.875,-4.375 c 0,2.4153 1.95973,4.375 4.375,4.375 h 8.75 c 2.41527,0 4.375,-1.9597 4.375,-4.375 0,-2.4153 -1.95973,-4.375 -4.375,-4.375 h -8.75 c -2.41527,0 -4.375,1.9597 -4.375,4.375 z m -73.40676,-27.845 c 1.70926,1.709 4.47781,1.709 6.18653,0 1.70925,-1.7089 1.70925,-4.4775 0,-6.1865 l -6.18653,-6.1865 c -1.70898,-1.709 -4.47726,-1.709 -6.18652,0 -1.70899,1.709 -1.70899,4.4775 0,6.1865 l 6.18652,6.1865 z M -50.625,530 c -1.4525,0 -2.88805,0.1025 -4.31812,0.3076 -4.58583,-6.2549 -10.69797,-11.0285 -17.62524,-14.082 -0.35301,-16.5772 -13.89391,-29.9756 -30.55664,-29.9756 -16.88477,0 -30.625,13.7402 -30.625,30.625 0,4.7682 1.18508,9.2285 3.14453,13.2448 C -146.90918,530.7861 -160,544.1673 -160,560.625 c 0,16.8848 13.74023,30.625 30.625,30.625 3.74281,0 7.40578,-0.6836 10.85793,-2.0051 C -110.59914,596.1492 -100.52734,600 -90,600 c 10.53883,0 20.59887,-3.8508 28.51707,-10.7551 3.45215,1.3215 7.11512,2.0051 10.85793,2.0051 C -33.74023,591.25 -20,577.5098 -20,560.625 -20,543.7402 -33.74023,530 -50.625,530 z m -52.5,-35 c 10.88609,0 19.84117,7.9754 21.52172,18.3887 C -84.3434,512.8418 -87.14012,512.5 -90,512.5 c -12.56117,0 -24.19922,5.4173 -32.36816,14.5605 C -123.99156,524.0071 -125,520.5779 -125,516.875 -125,504.7923 -115.20766,495 -103.125,495 z m 52.5,87.5 c -4.68262,0 -9.00047,-1.5039 -12.56117,-4.0105 C -69.60594,586.2256 -79.16531,591.25 -90,591.25 c -10.83496,0 -20.39406,-5.0244 -26.81383,-12.7605 -3.55469,2.5066 -7.87855,4.0105 -12.56117,4.0105 -12.08266,0 -21.875,-9.7923 -21.875,-21.875 0,-12.0827 9.79234,-21.875 21.875,-21.875 2.11914,0 4.11852,0.3987 6.0498,0.9682 0.76891,0.2166 1.54958,0.3875 2.27282,0.6894 1.19629,-2.3412 2.70019,-4.4833 4.36925,-6.4942 6.39188,-7.6901 15.8993,-12.6634 26.68313,-12.6634 2.76855,0 5.42336,0.3987 7.99805,1.0142 2.88804,0.6833 5.61695,1.7202 8.15773,3.0874 6.36863,3.3838 11.59813,8.6247 14.89059,15.0563 2.56949,-1.0596 5.37797,-1.6579 8.32863,-1.6579 12.08266,0 21.875,9.7923 21.875,21.875 0,12.0827 -9.79234,21.875 -21.875,21.875 z"
     id="_partly_sunny" />
  <path
     id="_wintry_mix"
     style="fill:#000000;fill-opacity:1;fill-rule:evenodd"
     d="m -142.78478,561.4439 c 0,4.8049 3.88784,8.6928 8.69276,8.6928 4.80493,0 8.69277,-3.8879 8.69277,-8.6928 0,-4.8049 -8.69277,-17.3855 -8.69277,-17.3855 0,0 -8.69276,12.5806 -8.69276,17.3855 z m 88.557555,8.1495 c 0,4.8049 3.88784,8.6927 8.69277,8.6927 4.80492,0 8.69276,-3.8878 8.69276,-8.6927 0,-4.8049 -8.69276,-17.3856 -8.69276,-17.3856 0,0 -8.69277,12.5807 -8.69277,17.3856 z M -89.999995,460 c -13.905165,0 -26.709275,6.6329 -34.830495,17.6911 -1.42072,-0.2037 -2.84396,-0.3056 -4.28696,-0.3056 -16.77432,0 -30.42468,13.6504 -30.42468,30.4247 0,16.7743 13.65036,30.4247 30.42468,30.4247 3.71834,0 7.3515,-0.6736 10.78107,-1.9864 7.86614,6.8591 17.8779,10.6792 28.336385,10.6792 10.46989,0 20.46148,-3.8201 28.32789,-10.6792 3.42957,1.3128 7.07123,1.9864 10.78956,1.9864 16.77432,0 30.42468,-13.6504 30.42468,-30.4247 0,-16.7743 -13.65036,-30.4247 -30.42468,-30.4247 -1.443,0 -2.87473,0.1019 -4.29545,0.3056 C -63.293235,466.6329 -76.094835,460 -89.999995,460 z m 0,8.6928 c 13.50339,0 25.07978,7.7902 30.84064,19.0409 2.55269,-1.0527 5.34544,-1.6554 8.27681,-1.6554 12.00362,0 21.73191,9.7283 21.73191,21.7319 0,12.0036 -9.72829,21.7319 -21.73191,21.7319 -4.65199,0 -8.94146,-1.4911 -12.47888,-3.9813 -6.37777,7.6855 -15.87476,12.6741 -26.63857,12.6741 -10.764085,0 -20.260805,-4.9886 -26.638575,-12.6741 -3.53144,2.4902 -7.82689,3.9813 -12.47888,3.9813 -12.00362,0 -21.73188,-9.7283 -21.73188,-21.7319 0,-12.0036 9.72826,-21.7319 21.73188,-21.7319 2.93707,0 5.72134,0.6027 8.26832,1.6554 5.76684,-11.2507 17.34574,-19.0409 30.849135,-19.0409 z m -1.7995,92.2259 c -2.15735,0 -3.90675,1.7516 -3.90675,3.9137 l 0,4.6189 c -1.35548,0.4841 -2.57914,1.2123 -3.65782,2.1297 l -4.017375,-2.3233 c -1.87613,-1.0787 -4.26631,-0.4448 -5.34499,1.4313 -1.07868,1.8624 -0.42882,4.2592 1.43824,5.3381 l 3.97589,2.2956 c -0.12922,0.6961 -0.21435,1.4038 -0.21435,2.1366 0,0.7331 0.0851,1.4385 0.21435,2.1297 l -3.97589,2.2957 c -1.8717,1.0787 -2.51692,3.4848 -1.43824,5.3519 1.07868,1.867 3.47124,2.5028 5.33807,1.4244 l 4.017385,-2.3095 c 1.07845,0.9127 2.30483,1.632 3.66473,2.1159 l 0,4.6328 c 0,2.1571 1.7494,3.8998 3.90675,3.8998 2.15736,0 3.91367,-1.7427 3.91367,-3.8998 l 0,-4.6328 c 1.35526,-0.4841 2.58844,-1.2033 3.65782,-2.1297 l 4.01738,2.3233 c 1.87148,1.0787 4.25918,0.4426 5.33808,-1.4244 1.07845,-1.8668 0.44015,-4.2595 -1.43132,-5.3519 l -3.98281,-2.2957 c 0.11992,-0.6912 0.21435,-1.3966 0.21435,-2.1297 0,-0.7328 -0.0921,-1.4382 -0.22127,-2.1297 l 3.98973,-2.3025 c 1.8624,-1.088 2.5007,-3.4781 1.43132,-5.3312 -1.0789,-1.8761 -3.4666,-2.5169 -5.33808,-1.4382 l -4.02429,2.3233 c -1.0789,-0.9174 -2.29565,-1.6342 -3.65091,-2.1228 l 0,-4.6258 c 0,-2.1621 -1.75631,-3.9137 -3.91367,-3.9137 z m 0,15.6339 c 2.15736,0 3.90675,1.7494 3.90675,3.9067 0,2.1574 -1.74939,3.9137 -3.90675,3.9137 -2.15735,0 -3.91366,-1.7563 -3.91366,-3.9137 0,-2.1573 1.75631,-3.9067 3.91366,-3.9067 z"
     inkscape:connector-curvature="0" />
  <g
     id="_d0_icon"
     transform="translate(190,-190)">
    <use
       id="_use0"
       xlink:href="#_use_d0"
       x="0"
       y="0"
       width="800"
       height="600" />
  </g>
  <g
     id="_d1_icon"
     transform="translate(390,-190)">
    <use
       id="_use1"
       xlink:href="#_use_d1"
       x="0"
       y="0"
       width="800"
       height="600" />
  </g>
  <g
     id="_d2_icon"
     transform="translate(590,-190)">
    <use
       id="_use2"
       xlink:href="#_use_d2"
       x="0"
       y="0"
       width="800"
       height="600" />
  </g>
  <path
     style="fill:#000000;fill-opacity:1"
     inkscape:connector-curvature="0"
     d="m -20,496.86841 c 0,-13.43836 -10.9375,-24.36984 -24.3816,-24.36984 -0.65516,0 -1.30457,0.0227 -1.95399,0.0738 -6.32324,-7.88402 -15.85336,-12.57238 -26.16441,-12.57238 -10.30531,0 -19.84117,4.68836 -26.16469,12.57238 -0.64941,-0.0511 -1.30457,-0.0738 -1.96547,-0.0738 -13.43234,0 -24.36984,10.93175 -24.36984,24.36984 0,1.40711 0.18813,2.76855 0.41016,4.11305 -0.14821,0.19359 -0.32485,0.37023 -0.46703,0.56957 -1.42981,-0.20508 -2.86536,-0.30762 -4.31813,-0.30762 -16.88477,0 -30.625,13.74023 -30.625,30.625 0,16.88504 13.74023,30.625 30.625,30.625 3.74281,0 7.40578,-0.68332 10.85793,-2.00512 5.01867,4.375 10.96594,7.36586 17.28316,9.08031 l -6.26609,4.18141 8.75,8.75 -8.75,17.5 26.25,-17.5 -8.75,-8.75 1.31578,-2.62035 c 10.04883,-0.30762 19.61914,-4.02746 27.20129,-10.64137 3.45215,1.3218 7.11512,2.00512 10.85793,2.00512 16.88477,0 30.625,-13.73996 30.625,-30.625 0,-7.01805 -2.47242,-13.42113 -6.47117,-18.59375 C -22.48391,508.93384 -20,503.20888 -20,496.86841 z m -30.625,56.875 c -4.68262,0 -9.00047,-1.50391 -12.56117,-4.00477 -5.19531,6.26063 -12.50977,10.58996 -20.84387,12.06543 l -6.49988,0.63219 c -10.61266,-0.17063 -19.97789,-5.0925 -26.28391,-12.69734 -3.55469,2.50086 -7.87828,4.00476 -12.56117,4.00476 -12.08266,0 -21.875,-9.7866 -21.875,-21.875 0,-12.07691 9.79234,-21.875 21.875,-21.875 2.95641,0 5.75914,0.60403 8.32289,1.66332 0.15367,-0.29613 0.3418,-0.54687 0.49547,-0.83179 1.53809,-2.80848 3.43492,-5.3777 5.65086,-7.66774 6.31203,-6.53406 15.08473,-10.66406 24.90578,-10.66406 13.5923,0 25.24758,7.83863 31.04637,19.16332 1.54383,-0.63793 3.19047,-1.04809 4.88769,-1.32152 l 3.44094,-0.3418 c 3.37258,0 6.52832,0.8318 9.38219,2.1875 3.09312,1.48121 5.74793,3.65722 7.83289,6.34594 2.87109,3.69714 4.65992,8.29445 4.65992,13.34156 0,12.0884 -9.79234,21.875 -21.875,21.875 z m 17.92711,-46.58692 c -5.05285,-3.67445 -11.21094,-5.91308 -17.92711,-5.91308 -1.4525,0 -2.88805,0.10254 -4.31812,0.30762 C -63.1118,490.42567 -76.00328,483.74341 -90,483.74341 c -9.33105,0 -18.13219,3.02476 -25.41273,8.29992 2.04503,-6.24887 7.85558,-10.79476 14.78257,-10.79476 2.11914,0 4.11852,0.4271 5.94727,1.1848 4.15297,-8.08937 12.47586,-13.68336 22.18289,-13.68336 9.70703,0 18.03539,5.59399 22.17141,13.68336 1.83996,-0.7577 3.85082,-1.1848 5.94699,-1.1848 8.63625,0 15.6316,6.99535 15.6316,15.61984 0,3.96484 -1.52086,7.53676 -3.94789,10.28808 z"
     id="_heavy_tstorm" />
  <path
     inkscape:connector-curvature="0"
     d="m -137.76571,561.04805 c -1.49281,2.68098 -2.68099,6.71483 -2.68099,9.25654 0,0.59008 0,1.34061 0.14618,2.38171 L -158.958,540.59893 c -0.59721,-1.04111 -1.042,-2.53481 -1.042,-3.88053 0,-1.34751 0.44479,-2.98561 1.042,-4.0285 l 8.95704,-15.67188 -9.99904,-5.66682 32.53818,-0.60233 15.81806,28.50433 -10.14523,-5.81991 -15.97672,27.61476 z m 14.3315,-90.44154 c 2.8334,-4.93034 7.46424,-7.61667 13.13105,-7.61667 6.12364,0 10.90088,2.83943 14.33127,8.65242 l 5.07563,8.50625 -17.61571,30.45418 -28.50433,-16.56859 13.58209,-23.42759 z m 2.08377,116.25953 c -8.50624,0 -15.51968,-7.01432 -15.51968,-15.52034 0,-2.38862 1.04801,-6.42224 2.54082,-8.95705 l 4.771,-8.50624 h 35.3776 v 32.98386 h -27.16974 z m 28.36439,-117.16137 c -2.23642,-3.8754 -5.22203,-6.56865 -8.80485,-8.06234 h 36.71197 c 3.28421,0 5.81901,1.34751 7.31806,3.88744 l 9.10345,15.52035 9.84751,-5.82526 -15.82519,28.36327 -32.37974,-0.45615 9.99905,-5.66681 -15.97026,-27.7605 z m 56.57078,84.47701 c 4.47239,0 8.20763,-1.19419 11.33965,-3.57769 l -18.5113,32.23333 c -1.49281,2.53481 -4.17379,4.0285 -7.3067,4.0285 h -17.46952 v 11.49185 l -16.71388,-27.90712 16.71388,-27.91425 v 11.64516 h 31.94787 z m 14.31924,-26.86601 c 1.34662,2.38862 2.09603,4.92343 2.09603,7.61132 0,5.37422 -3.43663,11.04617 -8.20764,13.72737 -2.24221,1.20134 -5.38046,1.94986 -8.50624,1.94986 h -9.85888 l -17.60434,-30.45419 28.50522,-16.26908 13.57585,23.43472 z"
     id="_recycle"
     style="fill:#000000;fill-opacity:1" />
  <g
     style="font-size:58.92795563px;font-style:normal;font-weight:normal;line-height:125%;letter-spacing:0px;word-spacing:0px;fill:#000000;fill-opacity:1;stroke:none;font-family:Sans"
     id="text3274">
    <path
       d="m -102.94058,520.77189 6.15208,0.63642 c 5.51561,6e-5 10.53627,-2.19205 15.06198,-6.57636 4.52561,-4.52558 6.78844,-9.8291 6.7885,-15.91055 -6e-5,-12.30406 -5.02071,-18.45612 -15.06198,-18.45624 -4.38428,1.2e-4 -7.99067,1.76796 -10.81918,5.30352 -2.68714,3.39436 -4.0307,7.42502 -4.03067,12.09202 l 0,2.1214 -21.63834,0 c -1e-5,-10.60692 3.39424,-19.37539 10.18275,-26.30544 6.9299,-7.07122 15.62766,-10.6069 26.09329,-10.60703 10.60698,1.3e-4 19.37546,3.46508 26.30544,10.39488 6.92986,6.93005 10.39482,15.69852 10.3949,26.30544 -8e-5,8.48571 -2.54577,15.98135 -7.63707,22.48692 -4.95001,6.5057 -11.59708,10.74851 -19.94122,12.72843 l -1.27284,16.33483 -20.57764,0 0,-30.54825 m 22.4869,62.79363 c -5e-5,3.67711 -1.3436,6.85921 -4.03067,9.54632 -2.54573,2.54569 -5.72784,3.81853 -9.54633,3.81854 -3.67713,-1e-5 -6.85924,-1.34356 -9.54633,-4.03068 -2.68714,-2.68711 -4.03069,-5.86921 -4.03067,-9.54633 -2e-5,-3.67708 1.27282,-6.78848 3.81853,-9.33418 2.68709,-2.68709 5.93991,-4.03065 9.75847,-4.03068 3.81849,3e-5 7.0006,1.34359 9.54633,4.03068 2.68707,2.5457 4.03062,5.72781 4.03067,9.54632"
       style="font-size:212.14064026px;font-family:Apple LiGothic;-inkscape-font-specification:Apple LiGothic"
       id="path3279"
       inkscape:label="#_question_mark"
       inkscape:connector-curvature="0" />
  </g>
  <g
     transform="translate(790,-190)"
     id="g0_icon">
    <use
       height="600"
       width="800"
       y="0"
       x="0"
       xlink:href="#_use_g0"
       id="_use3" />
  </g>
</svg>
